<?xml version="1.0" encoding="UTF-8"?>
<svg width="28px" height="30px" viewBox="0 0 28 30" version="1.1" xmlns="http://www.w3.org/2000/svg" xmlns:xlink="http://www.w3.org/1999/xlink">
    <title>4242B6EE-3F93-4FE9-8318-86F2284AF47C</title>
    <defs>
        <rect id="path-1" x="0" y="0" width="28" height="30"></rect>
        <linearGradient x1="-2.22044605e-14%" y1="50%" x2="100%" y2="50%" id="linearGradient-3">
            <stop stop-color="#0051B5" offset="0%"></stop>
            <stop stop-color="#04334F" offset="100%"></stop>
        </linearGradient>
        <path d="M1.02329132,1.99252676 C3.93341424,1.02546085 8.79990429,-0.0527674275 11.5011212,0.002003728 C14.212897,0.056988981 19.6443602,1.15340936 22.0987878,2.23728685 C22.4976818,2.41343884 22.9983277,2.90540309 22.9734685,3.65419414 C22.8298403,7.98046129 22.6277024,17.7560778 22.6277024,18.2858424 C22.6277024,18.6390187 15.426232,18.6390187 1.02329132,18.2858424 L0,3.25741011 C0,2.69925617 0.40571506,2.19775416 1.02329132,1.99252676 Z" id="path-4"></path>
        <rect id="path-6" x="0" y="0" width="5.311672" height="12.7333946" rx="2.655836"></rect>
    </defs>
    <g id="News-App-Designs" stroke="none" stroke-width="1" fill="none" fill-rule="evenodd">
        <g id="signal-app-icons-and-image-sheet" transform="translate(-524.000000, -1391.000000)">
            <g id="author3" transform="translate(524.000000, 1391.000000)">
                <mask id="mask-2" fill="white">
                    <use xlink:href="#path-1"></use>
                </mask>
                <g id="Mask"></g>
                <g id="Character---Man" mask="url(#mask-2)">
                    <g transform="translate(-2.000000, 3.925926)">
                        <g id="Group" transform="translate(0.000000, 18.962963)">
                            <rect id="Rectangle" x="0" y="0.206119163" width="32" height="18.7568438"></rect>
                            <g id="Body">
                                <path d="M32,3.74937639 L31.5677013,18.3446055 L25.6410256,18.0619112 C25.6820055,17.8840476 25.7123779,17.752248 25.7321431,17.6665125 C26.0446059,16.3111381 26.2765632,15.3107985 26.4280149,14.6654938 C27.9178349,8.31767476 28.9198627,4.56505461 29.4340981,3.40763334 C30.0341877,2.05697472 30.8894883,2.17088907 32,3.74937639 Z" id="Shirt-Copy-3" fill="#048EF7" transform="translate(28.820513, 10.409018) scale(-1, 1) translate(-28.820513, -10.409018) "></path>
                                <path d="M7.38461538,3.90809129 L6.41904586,18.3446055 L0,18.1937399 C2.58807776,9.48859603 4.18767095,4.46160543 4.79877959,3.11276808 C5.40988822,1.76393073 6.27183349,2.02903847 7.38461538,3.90809129 Z" id="Shirt-Copy-4" fill="#048EF7"></path>
                                <g id="Rectangle" transform="translate(4.923077, 0.000000)">
                                    <mask id="mask-5" fill="white">
                                        <use xlink:href="#path-4"></use>
                                    </mask>
                                    <use id="Mask" fill="url(#linearGradient-3)" xlink:href="#path-4"></use>
                                </g>
                                <ellipse id="Oval-Copy-5" fill="#FFFFFF" opacity="0.261602493" cx="16.1025641" cy="10.2028986" rx="3.79487179" ry="3.81320451"></ellipse>
                                <path d="" id="Path-6-Copy-2" stroke="#979797" stroke-width="0.725760027"></path>
                                <line x1="27.7948718" y1="5.26688702" x2="27.6968149" y2="18.00856" id="Path-10-Copy-3" stroke="#130A44" stroke-width="0.79833603" stroke-linecap="round"></line>
                                <line x1="5.79937901" y1="6.1755521" x2="5.28655849" y2="18.7106913" id="Path-10-Copy-4" stroke="#130A44" stroke-width="0.79833603" stroke-linecap="round" transform="translate(5.589744, 12.451144) scale(-1, 1) translate(-5.589744, -12.451144) "></line>
                            </g>
                        </g>
                        <g id="Head" transform="translate(9.481481, 0.000000)">
                            <g id="Hair---back" transform="translate(0.451221, 1.175390)">
                                <path d="M5.311672,12.7333946 C2.37811656,12.7333946 -2.30527833e-15,10.355278 0,7.42172255 L0,4.84422619 L0,4.84422619 C0,2.16883394 3.08274369,0 6.88550074,0 C10.6882578,0 13.7710015,2.16883394 13.7710015,4.84422619 L13.7710015,7.61845114 C13.7710015,10.4433564 11.4809633,12.7333946 8.65605808,12.7333946 L8.65605808,12.7333946 L8.65605808,12.7333946 L5.311672,12.7333946 Z" id="Color-Copy-4" fill="#0051B5"></path>
                                <path d="M5.311672,12.7333946 C2.37811656,12.7333946 -2.30527833e-15,10.355278 0,7.42172255 L0,4.84422619 L0,4.84422619 C0,2.16883394 3.08274369,0 6.88550074,0 C10.6882578,0 13.7710015,2.16883394 13.7710015,4.84422619 L13.7710015,7.61845114 C13.7710015,10.4433564 11.4809633,12.7333946 8.65605808,12.7333946 L8.65605808,12.7333946 L8.65605808,12.7333946 L5.311672,12.7333946 Z" id="Color-Copy-4" fill-opacity="0.4" fill="#000000"></path>
                            </g>
                            <g id="Neck" transform="translate(4.779250, 10.970309)">
                                <mask id="mask-7" fill="white">
                                    <use xlink:href="#path-6"></use>
                                </mask>
                                <use id="Base" fill="#FFD1A5" xlink:href="#path-6"></use>
                                <path d="M-1.25298238,5.65051693 C-1.2250052,6.58900423 1.02130538,7.40439411 5.48594935,8.09668656 L5.63226566,2.80743036 C1.01412311,3.76433411 -1.28095957,4.71202963 -1.25298238,5.65051693 Z" id="Shadow" fill-opacity="0.1" fill="#000000" mask="url(#mask-7)"></path>
                            </g>
                            <g id="Face" transform="translate(1.238135, 2.742577)">
                                <g id="Base" fill="#FFD1A5">
                                    <path d="M10.9803648,6.85686904 C11.6680438,7.09992956 12.1607345,7.75576656 12.1607345,8.52667764 L12.1607345,8.52667764 L12.1607345,8.70763215 C12.1607345,9.53880619 11.5880047,10.236212 10.8156626,10.4267324 L10.8348821,10.3466805 C10.9300324,9.94110111 10.9803629,9.51825563 10.9803629,9.08365482 L10.9803629,9.08365482 Z" id="Combined-Shape-Copy-3"></path>
                                    <path d="M0.165682855,6.85686904 C0.853361853,7.09992956 1.34605256,7.75576656 1.34605256,8.52667764 L1.34605256,8.52667764 L1.34605256,8.70763215 C1.34605256,9.53880619 0.773322818,10.236212 0.000980651653,10.4267324 L0.0202002142,10.3466805 C0.115350491,9.94110111 0.165681,9.51825563 0.165681,9.08365482 L0.165681,9.08365482 Z" id="Combined-Shape-Copy-4" transform="translate(0.673026, 8.642016) scale(-1, 1) translate(-0.673026, -8.642016) "></path>
                                    <path d="M6.09858637,0 C8.81484141,-4.98967956e-16 11.0168012,2.20195978 11.0168012,4.91821482 L11.0168012,10.1659603 C11.0168012,12.8822153 8.81484141,15.0841751 6.09858637,15.0841751 C3.38233133,15.0841751 1.18037156,12.8822153 1.18037156,10.1659603 L1.18037156,4.91821482 C1.18037156,2.20195978 3.38233133,4.98967956e-16 6.09858637,0 Z" id="Face-Copy-2"></path>
                                </g>
                                <g transform="translate(2.557472, 7.444138)">
                                    <g id="eyes-copy-2">
                                        <ellipse id="Oval-Copy" fill="#332316" cx="1.08200726" cy="0.685644322" rx="1" ry="1"></ellipse>
                                        <path d="M1.99850506,0.267167703 C1.34331944,-0.0607962801 0.677151087,-0.0868140334 0,0.189114443" id="Path-3-Copy-5" stroke="#332316" stroke-width="0.725760027" stroke-linecap="round"></path>
                                    </g>
                                    <g id="eyes-copy-3" transform="translate(5.886248, 0.685644) scale(-1, 1) translate(-5.886248, -0.685644) translate(4.886996, 0.000000)">
                                        <ellipse id="Oval-Copy" fill="#332316" cx="1.08200726" cy="0.685644322" rx="1" ry="1"></ellipse>
                                        <path d="M1.99850506,0.267167703 C1.34331944,-0.0607962801 0.677151087,-0.0868140334 0,0.189114443" id="Path-3-Copy-5" stroke="#332316" stroke-width="0.725760027" stroke-linecap="round"></path>
                                    </g>
                                    <line x1="3.54111467" y1="1.7630854" x2="3.54111467" y2="3.57887588" id="Path-4-Copy-2" stroke="#332316" stroke-width="0.725760027" opacity="0.205659412" stroke-linecap="round"></line>
                                    <path d="M4.55597677,5.09335782 C3.84590679,4.59836475 3.12456862,4.57239957 2.39196225,5.01546228" id="Path-3-Copy-9" stroke="#332316" stroke-width="0.725760027" stroke-linecap="round" transform="translate(3.473970, 4.897459) scale(-1, -1) translate(-3.473970, -4.897459) "></path>
                                </g>
                            </g>
                            <g id="Hair---front">
                                <path d="M0.451220738,6.85644322 C0.451220738,3.06973419 3.53396443,0 7.33672148,0 C11.1394785,0 14.2222222,3.06973419 14.2222222,6.85644322 L14.2222222,10.1867156 C12.7878429,9.82521083 11.7108593,9.87948259 10.7678501,8.42477808 C10.4087238,7.87078275 9.90765222,5.91434787 9.65064673,5.3708232 C4.77924978,11.8782044 0.604996682,8.4230895 0,8.03317264 L0.451220738,6.85644322 Z" id="Hair-pollina-Copy-2" fill="#0051B5"></path>
                                <path d="M9.88919812,4.72824839 C9.63022337,5.34923095 9.3695836,5.82440567 9.10727881,6.15377257" id="Path-7-Copy-2" stroke="#100C4F" stroke-width="0.725760027" stroke-linecap="round"></path>
                                <path d="M7.00358927,4.89745944 C5.14619471,6.82404857 3.15880046,7.6974926 1.04140652,7.51779155" id="Path-11-Copy-2" stroke="#100C4F" stroke-width="0.725760027" stroke-linecap="round"></path>
                            </g>
                        </g>
                    </g>
                </g>
            </g>
        </g>
    </g>
</svg>