<?xml version="1.0" encoding="UTF-8"?>
<svg width="104px" height="104px" viewBox="0 0 104 104" version="1.1" xmlns="http://www.w3.org/2000/svg" xmlns:xlink="http://www.w3.org/1999/xlink">
    <title>1BFA566B-62D2-4F49-B5A3-E9457BF7ED39</title>
    <defs>
        <rect id="path-1" x="0" y="0" width="104" height="104"></rect>
        <linearGradient x1="50%" y1="0%" x2="50%" y2="100%" id="linearGradient-3">
            <stop stop-color="#0D89F0" offset="0%"></stop>
            <stop stop-color="#053783" offset="100%"></stop>
        </linearGradient>
        <path d="M5.39195372,4.80630217 C13.9548955,1.42062621 22.2104876,-0.17633548 30.1587302,0.0154171015 C38.138042,0.207919234 45.7387344,2.20148563 52.9608074,5.99611629 C54.4577244,6.78262322 55.4252636,8.3039798 55.5028188,9.99316275 L57.9365079,61.4125215 L0,61.4125215 L2.38095238,43.1731158 L2.38095238,9.23463029 C2.38095073,7.2805459 3.57475571,5.52479866 5.39195372,4.80630217 Z" id="path-4"></path>
    </defs>
    <g id="News-App-Designs" stroke="none" stroke-width="1" fill="none" fill-rule="evenodd">
        <g id="signal-app-icons-and-image-sheet" transform="translate(-574.000000, -1394.000000)">
            <g id="author4" transform="translate(574.000000, 1394.000000)">
                <mask id="mask-2" fill="white">
                    <use xlink:href="#path-1"></use>
                </mask>
                <g id="Mask"></g>
                <g id="Character---Woman-" mask="url(#mask-2)">
                    <g transform="translate(7.555556, -0.222222)">
                        <g id="Head">
                            <rect id="Boundary" x="0" y="0" width="88.8888889" height="122.222222"></rect>
                            <g transform="translate(15.743265, 8.730159)">
                                <g id="Hair---Back" transform="translate(0.129751, 2.586996)">
                                    <path d="M21.4285714,73.015873 C9.59389822,73.015873 2.27656115e-14,63.4219748 0,51.5873016 L0,27.7777778 L0,27.7777778 C0,12.4365347 12.4365347,0 27.7777778,0 C43.1190208,0 55.5555556,12.4365347 55.5555556,27.7777778 L55.5555556,52.3809524 C55.5555556,63.7773044 46.3169869,73.015873 34.9206349,73.015873 L34.9206349,73.015873 L34.9206349,73.015873 L21.4285714,73.015873 Z" id="Color-Copy-4" fill="#0051B5"></path>
                                    <path d="M21.4285714,73.015873 C9.59389822,73.015873 2.27656115e-14,63.4219748 0,51.5873016 L0,27.7777778 L0,27.7777778 C0,12.4365347 12.4365347,0 27.7777778,0 C43.1190208,0 55.5555556,12.4365347 55.5555556,27.7777778 L55.5555556,52.3809524 C55.5555556,63.7773044 46.3169869,73.015873 34.9206349,73.015873 L34.9206349,73.015873 L34.9206349,73.015873 L21.4285714,73.015873 Z" id="Color-Copy-4" fill-opacity="0.4" fill="#000000"></path>
                                </g>
                                <g id="Neck" transform="translate(21.557805, 49.206349)">
                                    <rect id="Base" fill="#FFD1A5" x="0.000517299056" y="0" width="13.4920635" height="30.1587302" rx="6.74603175"></rect>
                                    <path d="M0.000504904584,15.6788659 C-0.0548557526,17.6882042 4.44233044,19.6406833 13.4920635,21.5363033 L13.4920635,9.82142857 C4.55305176,11.7170486 0.0558655618,13.6695277 0.000504904584,15.6788659 Z" id="Shadow" fill-opacity="0.1" fill="#000000"></path>
                                </g>
                                <g id="Face" transform="translate(3.968254, 8.730159)">
                                    <g id="Base" fill="#FFD1A5">
                                        <path d="M23.8095238,0 C34.7675546,-2.01295759e-15 43.6507937,8.88323909 43.6507937,19.8412698 L43.6507937,37.3015873 C43.6507937,48.2596181 34.7675546,57.1428571 23.8095238,57.1428571 C12.8514931,57.1428571 3.96825397,48.2596181 3.96825397,37.3015873 L3.96825397,19.8412698 C3.96825397,8.88323909 12.8514931,2.01295759e-15 23.8095238,0 Z" id="Face-Copy-2"></path>
                                        <path d="M42.7108779,27.773699 C45.4841635,28.7496291 47.4720468,31.3923352 47.4720468,34.4993364 L47.4720468,34.4993364 L47.4720468,35.3226999 C47.4720468,38.6670998 45.1687789,41.4735426 42.0619577,42.242314 C42.4857589,40.5289549 42.710142,38.7382538 42.710142,36.8951451 L42.710142,36.8951451 Z" id="Combined-Shape-Copy-3"></path>
                                        <path d="M0.648920195,27.773699 C3.42220572,28.7496291 5.41008902,31.3923352 5.41008902,34.4993364 L5.41008902,34.4993364 L5.41008902,35.3226999 C5.41008902,38.6670998 3.10682118,41.4735426 -1.75415238e-14,42.242314 C0.423801148,40.5289549 0.64818426,38.7382538 0.64818426,36.8951451 L0.64818426,36.8951451 Z" id="Combined-Shape-Copy-4" transform="translate(2.705045, 35.007949) scale(-1, 1) translate(-2.705045, -35.007949) "></path>
                                    </g>
                                    <g transform="translate(4.640173, 30.158730)">
                                        <g id="eyes-+-nose-+-mouth" transform="translate(5.858061, 0.000000)" stroke="#332316" stroke-width="1.5">
                                            <path d="M17.424002,18.2670137 C14.8252418,16.2657998 12.1852415,16.1608249 9.50400109,17.9520888" id="Mouth" stroke-linecap="round" transform="translate(13.464002, 17.475014) scale(-1, -1) translate(-13.464002, -17.475014) "></path>
                                            <g id="eyes">
                                                <g id="eyes-copy-2" transform="translate(1.584000, 0.000000)" fill="#332316">
                                                    <circle id="Oval-Copy" transform="translate(2.772000, 2.772000) scale(-1, 1) translate(-2.772000, -2.772000) " cx="2.77200032" cy="2.77200032" r="2.77200032"></circle>
                                                </g>
                                                <g id="eyes-copy-3" transform="translate(13.464002, 2.772000) scale(-1, 1) translate(-13.464002, -2.772000) ">
                                                    <circle id="Oval-Copy" fill="#332316" cx="4.3560005" cy="2.77200032" r="2.77200032"></circle>
                                                    <path d="M8.04568452,1.08013577 C5.40800453,-0.245794069 2.72610969,-0.350981581 0,0.764573234" id="Path-3-Copy-5" stroke-linecap="round"></path>
                                                    <path d="M26.9280031,1.08013577 C24.2903231,-0.245794069 21.6084283,-0.350981581 18.8823186,0.764573234" id="Path-3-Copy-5" stroke-linecap="round" transform="translate(22.905161, 0.540068) scale(-1, 1) translate(-22.905161, -0.540068) "></path>
                                                </g>
                                            </g>
                                            <line x1="13.8656658" y1="5.55952592" x2="13.8656658" y2="12.7074878" id="Nose" opacity="0.149999991" stroke-linecap="round"></line>
                                        </g>
                                        <g id="Cheeks" opacity="0.5" transform="translate(0.000000, 10.212027)" fill="#000000" fill-opacity="0.1">
                                            <path d="M4.38976051,0.210872039 C8.77297281,0.210872039 12.3262684,3.76416768 12.3262684,8.14737998 C12.3262684,10.575345 11.2360057,12.7486655 9.51834881,14.2044728 C4.82899486,11.4816436 1.35838893,6.89285382 0.121643708,1.45481264 C1.35452376,0.667280338 2.8188422,0.210872039 4.38976051,0.210872039 Z" id="Combined-Shape" transform="translate(6.223725, 7.207672) rotate(-1.000000) translate(-6.223725, -7.207672) "></path>
                                            <path d="M30.4596057,0.105438422 C34.842818,0.105438422 38.3961136,3.65873406 38.3961136,8.04194636 C38.3961136,10.4699114 37.3058508,12.6432319 35.588194,14.0990392 C30.89884,11.37621 27.4282341,6.7874202 26.1914889,1.34937903 C27.4243689,0.561846721 28.8886874,0.105438422 30.4596057,0.105438422 Z" id="Combined-Shape-Copy-5" transform="translate(32.293570, 7.102239) scale(-1, 1) rotate(-1.000000) translate(-32.293570, -7.102239) "></path>
                                        </g>
                                    </g>
                                </g>
                                <g id="Hair---Front">
                                    <path d="M0.129751225,27.7777778 C0.129751225,12.4365347 12.566286,0 27.907529,0 C43.2487721,0 55.6853068,12.4365347 55.6853068,27.7777778 L55.6853068,41.2698413 C47.6949488,39.2475069 41.0018187,29.7431426 37.2424639,21.759027 C31.0821322,38.4920635 4.37980768,40.4685744 1.93910452,38.8888889 C0.311969086,37.8357652 -0.29114868,34.1320615 0.129751225,27.7777778 Z" id="Hair-pollina-Copy-2" fill="#0051B5"></path>
                                    <path d="M38.204838,19.1557385 C37.1600712,21.6715495 36.1085872,23.5966435 35.0503861,24.9310206" id="Path-7-Copy-2" stroke="#100C4F" stroke-width="1.5" stroke-linecap="round"></path>
                                    <path d="M26.563593,19.8412698 C19.0704134,27.646536 11.0527836,31.1851542 2.51070361,30.4571243" id="Path-11-Copy-2" stroke="#100C4F" stroke-width="1.5" stroke-linecap="round"></path>
                                </g>
                            </g>
                        </g>
                        <g id="Body" transform="translate(0.000000, 72.222222)">
                            <rect id="Rectangle" x="0" y="0" width="88.8888889" height="72.2222222"></rect>
                            <g transform="translate(3.174603, 0.032552)">
                                <path d="M82.1428571,20.9782732 L71.8253968,70.6023686 L59.5238095,70.8368211 C59.6695759,70.2172227 59.7776116,69.7580913 59.8479167,69.4594268 C60.9593557,64.737901 61.7844341,61.2531598 62.3231519,59.0052034 C67.6224831,36.8922064 71.1867234,23.8197358 73.015873,19.7877914 C75.1504084,15.0826935 78.1927364,15.4795208 82.1428571,20.9782732 Z" id="Shirt-Copy-3" fill="#048EF7" transform="translate(70.833333, 43.685130) scale(-1, 1) translate(-70.833333, -43.685130) "></path>
                                <path d="M22.6190476,20.9782732 L12.6984127,70.6023686 L0,70.8368211 C6.92346935,40.4533566 11.4524717,22.9090755 13.5870071,18.2039776 C15.7215424,13.4988797 18.7322226,14.4236449 22.6190476,20.9782732 Z" id="Shirt-Copy-4" fill="#048EF7"></path>
                                <g id="Rectangle" transform="translate(11.904762, 9.189847)">
                                    <mask id="mask-5" fill="white">
                                        <use xlink:href="#path-4"></use>
                                    </mask>
                                    <use id="Mask" fill="url(#linearGradient-3)" xlink:href="#path-4"></use>
                                    <rect fill="#FFD1A5" mask="url(#mask-5)" x="2.38095238" y="-1.28589118" width="53.1746032" height="11.9047619" rx="5.54400064"></rect>
                                </g>
                                <circle id="Oval-Copy-4" fill="#FFFFFF" cx="40.8730159" cy="30.5230035" r="1.19047619"></circle>
                                <circle id="Oval-Copy-5" fill="#FFFFFF" cx="40.8730159" cy="25.7610987" r="1.19047619"></circle>
                                <path d="" id="Path-6-Copy-2" stroke="#979797" stroke-width="1.5"></path>
                                <polyline id="Path-10-Copy-3" stroke="#130A44" stroke-width="1.5" stroke-linecap="round" points="67.4428788 25.2735925 66.2225632 55.8024089 69.8412698 69.265408"></polyline>
                                <polyline id="Path-10-Copy-4" stroke="#130A44" stroke-width="1.5" stroke-linecap="round" transform="translate(14.507766, 47.269500) scale(-1, 1) translate(-14.507766, -47.269500) " points="13.9187283 25.2735925 12.6984127 55.8024089 16.3171193 69.265408"></polyline>
                                <path d="" id="Path-12-Copy" stroke="#979797" stroke-width="1.5"></path>
                            </g>
                        </g>
                    </g>
                </g>
            </g>
        </g>
    </g>
</svg>