<?xml version="1.0" encoding="UTF-8"?>
<svg width="28px" height="30px" viewBox="0 0 28 30" version="1.1" xmlns="http://www.w3.org/2000/svg" xmlns:xlink="http://www.w3.org/1999/xlink">
    <title>9D3FFEAB-B917-4E2F-BAEC-A818A03B6701</title>
    <defs>
        <rect id="path-1" x="0" y="0" width="28" height="30"></rect>
        <linearGradient x1="50%" y1="0%" x2="50%" y2="100%" id="linearGradient-3">
            <stop stop-color="#0D89F0" offset="0%"></stop>
            <stop stop-color="#053783" offset="100%"></stop>
        </linearGradient>
        <path d="M1.39731907,1.25736898 C3.61639631,0.371647738 5.75582424,-0.0461308413 7.81560284,0.00403324312 C9.883433,0.0543934163 11.8531444,0.575927115 13.7247369,1.56863434 C14.1126614,1.77439115 14.3633981,2.1723908 14.3834965,2.61429524 L15.0141844,16.066031 L0,16.066031 L0.617021277,11.2944494 L0.617021277,2.41585678 C0.617020848,1.9046519 0.92639414,1.44533369 1.39731907,1.25736898 Z" id="path-4"></path>
    </defs>
    <g id="News-App-Designs" stroke="none" stroke-width="1" fill="none" fill-rule="evenodd">
        <g id="signal-app-icons-and-image-sheet" transform="translate(-478.000000, -1391.000000)">
            <g id="author2" transform="translate(478.000000, 1391.000000)">
                <mask id="mask-2" fill="white">
                    <use xlink:href="#path-1"></use>
                </mask>
                <g id="Mask"></g>
                <g id="Character-1" mask="url(#mask-2)">
                    <g transform="translate(-5.000000, 4.000000)">
                        <g id="Head" transform="translate(5.964539, 0.000000)">
                            <rect id="Boundary" x="0" y="0" width="23.035461" height="31.974359"></rect>
                            <g transform="translate(0.822695, 0.000000)">
                                <g id="Hair---back" fill="#8B572A">
                                    <ellipse id="Oval" cx="4.62765957" cy="9.23934399" rx="4.62765957" ry="4.67157842"></ellipse>
                                    <ellipse id="Oval-Copy-91" cx="8.12411348" cy="4.67157842" rx="4.62765957" ry="4.67157842"></ellipse>
                                    <ellipse id="Oval-Copy-92" cx="13.677305" cy="5.50208125" rx="4.62765957" ry="4.67157842"></ellipse>
                                    <ellipse id="Oval-Copy-93" cx="16.5567376" cy="9.23934399" rx="4.62765957" ry="4.67157842"></ellipse>
                                    <ellipse id="Oval-Copy-94" cx="14.7056738" cy="14.6376124" rx="4.62765957" ry="4.67157842"></ellipse>
                                    <ellipse id="Oval-Copy-95" cx="11.0035461" cy="16.9214952" rx="4.62765957" ry="4.67157842"></ellipse>
                                    <ellipse id="Oval-Copy-96" cx="7.09574468" cy="15.2604895" rx="4.62765957" ry="4.67157842"></ellipse>
                                    <ellipse id="Oval-Copy-97" cx="3.59929078" cy="13.1842324" rx="2.9822695" ry="3.01057276"></ellipse>
                                    <ellipse id="Oval-Copy-98" cx="18.4078014" cy="13.1842324" rx="2.9822695" ry="3.01057276"></ellipse>
                                </g>
                                <g id="Neck" transform="translate(8.432624, 15.156677)">
                                    <rect id="Base" fill="#FFD1A5" x="0.617021277" y="0" width="3.4964539" height="7.88977689" rx="1.74822695"></rect>
                                    <polygon id="Shadow" fill-opacity="0.1" fill="#000000" points="0 3.8189673 4.11347518 5.94328588 4.11347518 2.56936813"></polygon>
                                </g>
                                <g id="Face" transform="translate(4.319149, 4.567766)">
                                    <g id="Base" fill="#FFD1A5">
                                        <path d="M6.37588652,0 C9.21564854,-5.21655819e-16 11.5177305,2.30208196 11.5177305,5.14184397 L11.5177305,9.80720698 C11.5177305,12.646969 9.21564854,14.9490509 6.37588652,14.9490509 C3.53612451,14.9490509 1.23404255,12.646969 1.23404255,9.80720698 L1.23404255,5.14184397 C1.23404255,2.30208196 3.53612451,5.21655819e-16 6.37588652,0 Z" id="Face-Copy-2"></path>
                                        <path d="M11.4800123,7.2069229 C12.1881807,7.38018512 12.7136779,8.01900998 12.7136779,8.7805713 L12.7136779,8.7805713 L12.7136779,9.48545932 C12.7136779,10.3059523 12.1037051,10.9839785 11.3124896,11.0908079 C11.421684,10.6468562 11.4796354,10.1835628 11.4796354,9.70673414 L11.4796354,9.70673414 Z" id="Combined-Shape-Copy-3"></path>
                                        <path d="M0.189970884,7.2069229 C0.898139271,7.38018512 1.42363655,8.01900998 1.42363655,8.7805713 L1.42363655,8.7805713 L1.42363655,9.48545932 C1.42363655,10.3059523 0.813663741,10.9839785 0.0224482217,11.0908079 C0.131642638,10.6468562 0.189593994,10.1835628 0.189593994,9.70673414 L0.189593994,9.70673414 Z" id="Combined-Shape-Copy-4" transform="translate(0.711818, 9.139305) scale(-1, 1) translate(-0.711818, -9.139305) "></path>
                                    </g>
                                    <g transform="translate(1.367247, 7.861585)">
                                        <g id="eyes-+-nose-+-mouth" transform="translate(2.644381, 0.000000)" stroke="#332316" stroke-width="0.5">
                                            <path d="M3.96691416,5.11062163 C3.37628683,4.65580028 2.77628675,4.63194234 2.16691392,5.03904779" id="Mouth" stroke-linecap="round" transform="translate(3.066914, 4.930622) scale(-1, -1) translate(-3.066914, -4.930622) "></path>
                                            <g id="eyes">
                                                <g id="eyes-copy-2" transform="translate(0.360000, 0.000000)" fill="#332316">
                                                    <circle id="Oval-Copy" transform="translate(0.630000, 0.630000) scale(-1, 1) translate(-0.630000, -0.630000) " cx="0.630000081" cy="0.630000081" r="1"></circle>
                                                </g>
                                                <g id="eyes-copy-3" transform="translate(3.060000, 0.630000) scale(-1, 1) translate(-3.060000, -0.630000) ">
                                                    <circle id="Oval-Copy" fill="#332316" cx="0.990000128" cy="0.630000081" r="1"></circle>
                                                    <path d="M1.82856469,0.245485406 C1.22909196,-0.0558622892 0.619570393,-0.0797685423 0,0.173766647" id="Path-3-Copy-5" stroke-linecap="round"></path>
                                                    <path d="M6.12000079,0.245485406 C5.52052806,-0.0558622892 4.91100649,-0.0797685423 4.2914361,0.173766647" id="Path-3-Copy-5" stroke-linecap="round" transform="translate(5.205718, 0.122743) scale(-1, 1) translate(-5.205718, -0.122743) "></path>
                                                </g>
                                            </g>
                                            <line x1="3.19712016" y1="1.52364878" x2="3.19712016" y2="3.48262579" id="Nose" opacity="0.149999991" stroke-linecap="round"></line>
                                        </g>
                                        <g id="Cheeks" opacity="0.5" transform="translate(0.000000, 2.700006)" fill="#000000" fill-opacity="0.1">
                                            <path d="M1.14493182,0.054964751 C2.28083663,0.054964751 3.20166941,0.984536707 3.20166941,2.13122183 C3.20166941,2.76880176 2.9169863,3.33925936 2.4689391,3.72012422 C1.24672999,3.00781039 0.344991411,1.80707523 0.0315137907,0.38554893 C0.353274477,0.175968802 0.735104995,0.054964751 1.14493182,0.054964751 Z" id="Combined-Shape" transform="translate(1.616702, 1.887190) rotate(-1.000000) translate(-1.616702, -1.887190) "></path>
                                            <path d="M7.90783907,0.0273824321 C9.04374388,0.0273824321 9.96457666,0.956954388 9.96457666,2.10363951 C9.96457666,2.74121945 9.67989355,3.31167704 9.23184635,3.6925419 C8.00963724,2.98022807 7.10789866,1.77949291 6.79442104,0.357966611 C7.11618173,0.148386483 7.49801225,0.0273824321 7.90783907,0.0273824321 Z" id="Combined-Shape-Copy-5" transform="translate(8.379610, 1.859608) scale(-1, 1) rotate(-1.000000) translate(-8.379610, -1.859608) "></path>
                                        </g>
                                    </g>
                                </g>
                                <g id="Hair---front" transform="translate(3.496454, 2.283883)">
                                    <path d="M0,7.26689977 C0,3.25350185 3.22291474,0 7.19858156,0 C11.1742484,0 14.3971631,3.25350185 14.3971631,7.26689977 L14.3971631,10.7965368 C12.3264703,10.2674772 10.5919528,7.78105568 9.61772001,5.69234407 C8.33732844,7.97692178 6.10171063,9.49028547 3.55791962,9.49028547 C3.04379031,9.49028547 2.54224958,9.42846602 2.05863954,9.31095434 C1.32493702,9.13267306 0.632505626,8.82620479 0,8.4129458 L0,7.26689977 Z" id="Hair-pollina-Copy-2" fill="#8B572A"></path>
                                    <path d="M9.86711824,5.01130193 C9.59636802,5.6694592 9.32387707,6.17307996 9.04964539,6.5221642" id="Path-7-Copy-2" stroke="#4A2709" stroke-width="0.5" stroke-linecap="round"></path>
                                    <path d="M6.85030197,5.19064269 C4.90845246,7.23256583 2.83069223,8.15829803 0.617021277,7.96783929" id="Path-11-Copy-2" stroke="#4A2709" stroke-width="0.5" stroke-linecap="round"></path>
                                    <path d="M14.3941285,7.71910025 C14.3941285,7.71910025 12.8308734,9.81971276 9.88731798,9.68944958" id="Path-11-Copy-3" stroke="#4A2709" stroke-width="0.5" stroke-linecap="round" transform="translate(12.140723, 8.707184) rotate(69.000000) translate(-12.140723, -8.707184) "></path>
                                </g>
                            </g>
                        </g>
                        <g id="Body" transform="translate(0.000000, 18.893939)">
                            <rect id="Rectangle" x="5.96453901" y="0" width="23.035461" height="18.8939394"></rect>
                            <g transform="translate(0.000000, 0.008516)">
                                <path d="M28.0744681,5.48809231 L25.4007092,18.4701721 L22.212766,18.5315068 C22.2505412,18.3694147 22.2785385,18.2493021 22.296758,18.1711689 C22.5847862,16.9359781 22.7986044,16.0243406 22.9382126,15.4362563 C24.3115286,9.65131078 25.2351977,6.23144276 25.7092199,5.17665229 C26.2623824,3.94575919 27.0507985,4.04957253 28.0744681,5.48809231 Z" id="Shirt-Copy-3" fill="#048EF7" transform="translate(25.143617, 11.428397) scale(-1, 1) translate(-25.143617, -11.428397) "></path>
                                <g id="Arm" transform="translate(0.000000, 3.728747)">
                                    <path d="M5.333458,3.47021653 C4.40136488,2.2408858 3.87258514,1.72009807 3.74711879,1.90785335 C3.55891927,2.18948627 3.74711879,2.63220469 3.74711879,2.67037762 C3.74711879,2.70855054 1.96846257,2.11750666 1.74561586,1.90785335 C1.52276914,1.69820005 0,1.41859473 0,1.90785335 C0,2.39711198 0.179864112,5.4869637 2.48033716,5.08397923 C4.01398585,4.81532292 4.96502613,4.27740202 5.333458,3.47021653 Z" id="Path-15" fill="#FFD1A5"></path>
                                    <path d="M12.8167318,1.61344805 L10.1895882,14.5955278 C7.60922446,14.8756661 6.01896199,14.7590794 5.41880077,14.2457677 C4.11771782,13.1329648 2.01727549,7.54836523 2.29505001,6.00521693 C2.58006081,4.42186815 6.13382804,2.735247 6.19662497,3.1761139 C6.95374018,8.49145367 7.62925847,11.6929995 7.93118743,10.4015234 C9.18217507,5.05052804 10.2038117,1.73944057 10.6494245,0.747866368 C11.2025871,-0.483026727 11.9250228,-0.194499499 12.8167318,1.61344805 Z" id="Shirt-Copy-4" fill="#048EF7"></path>
                                </g>
                                <g id="Rectangle" transform="translate(9.872340, 2.404141)">
                                    <mask id="mask-5" fill="white">
                                        <use xlink:href="#path-4"></use>
                                    </mask>
                                    <use id="Mask" fill="url(#linearGradient-3)" xlink:href="#path-4"></use>
                                    <rect fill="#FFD1A5" mask="url(#mask-5)" x="0.617021277" y="-0.336399924" width="13.7801418" height="3.11438561" rx="1.26000016"></rect>
                                </g>
                                <ellipse id="Oval-Copy-5" fill="#FFFFFF" cx="17.3794326" cy="6.7393196" rx="1" ry="1"></ellipse>
                                <path d="" id="Path-6-Copy-2" stroke="#979797" stroke-width="0.5"></path>
                                <polyline id="Path-10-Copy-3" stroke="#130A44" stroke-width="0.5" stroke-linecap="round" points="24.2649843 6.61178389 23.9487409 14.5983784 24.8865248 18.120412"></polyline>
                                <polyline id="Path-10-Copy-4" stroke="#130A44" stroke-width="0.5" stroke-linecap="round" transform="translate(10.546906, 12.366098) scale(-1, 1) translate(-10.546906, -12.366098) " points="10.3942577 6.61178389 10.0780142 14.5983784 11.0157981 18.120412"></polyline>
                                <path d="" id="Path-12-Copy" stroke="#979797" stroke-width="0.5"></path>
                            </g>
                        </g>
                    </g>
                </g>
            </g>
        </g>
    </g>
</svg>