<?xml version="1.0" encoding="UTF-8"?>
<svg width="104px" height="104px" viewBox="0 0 104 104" version="1.1" xmlns="http://www.w3.org/2000/svg" xmlns:xlink="http://www.w3.org/1999/xlink">
    <title>2C91DFCA-215B-486F-9745-8CFAA7B06519</title>
    <defs>
        <rect id="path-1" x="0" y="0" width="104" height="104"></rect>
        <linearGradient x1="50%" y1="0%" x2="50%" y2="100%" id="linearGradient-3">
            <stop stop-color="#0D89F0" offset="0%"></stop>
            <stop stop-color="#053783" offset="100%"></stop>
        </linearGradient>
        <path d="M4.24014062,3.80659132 C10.9738923,1.12513596 17.4659494,-0.1396577 23.7163121,0.0122103444 C29.991107,0.164672033 35.9681622,1.74357662 41.6474775,4.74892411 C42.8246276,5.37183759 43.5854838,6.576752 43.646472,7.9145849 L45.5602837,48.638717 L0,48.638717 L1.87234043,34.1931077 L1.87234043,7.31382719 C1.87233912,5.76619235 2.81112704,4.37564054 4.24014062,3.80659132 Z" id="path-4"></path>
    </defs>
    <g id="News-App-Designs" stroke="none" stroke-width="1" fill="none" fill-rule="evenodd">
        <g id="signal-app-icons-and-image-sheet" transform="translate(-699.000000, -1394.000000)">
            <g id="Character-1" transform="translate(699.000000, 1394.000000)">
                <mask id="mask-2" fill="white">
                    <use xlink:href="#path-1"></use>
                </mask>
                <g id="Mask"></g>
                <g mask="url(#mask-2)">
                    <g transform="translate(-1.300000, 15.000000)">
                        <g id="Head" transform="translate(18.099291, 0.000000)">
                            <rect id="Boundary" x="0" y="0" width="69.9007092" height="96.8"></rect>
                            <g transform="translate(2.496454, 0.000000)">
                                <g id="Hair---back" fill="#8B572A">
                                    <ellipse id="Oval" cx="14.0425532" cy="27.9714286" rx="14.0425532" ry="14.1428571"></ellipse>
                                    <ellipse id="Oval-Copy-91" cx="24.6524823" cy="14.1428571" rx="14.0425532" ry="14.1428571"></ellipse>
                                    <ellipse id="Oval-Copy-92" cx="41.5035461" cy="16.6571429" rx="14.0425532" ry="14.1428571"></ellipse>
                                    <ellipse id="Oval-Copy-93" cx="50.2411348" cy="27.9714286" rx="14.0425532" ry="14.1428571"></ellipse>
                                    <ellipse id="Oval-Copy-94" cx="44.6241135" cy="44.3142857" rx="14.0425532" ry="14.1428571"></ellipse>
                                    <ellipse id="Oval-Copy-95" cx="33.3900709" cy="51.2285714" rx="14.0425532" ry="14.1428571"></ellipse>
                                    <ellipse id="Oval-Copy-96" cx="21.5319149" cy="46.2" rx="14.0425532" ry="14.1428571"></ellipse>
                                    <ellipse id="Oval-Copy-97" cx="10.9219858" cy="39.9142857" rx="9.04964539" ry="9.11428571"></ellipse>
                                    <ellipse id="Oval-Copy-98" cx="55.858156" cy="39.9142857" rx="9.04964539" ry="9.11428571"></ellipse>
                                </g>
                                <g id="Neck" transform="translate(25.588652, 45.885714)">
                                    <rect id="Base" fill="#FFD1A5" x="1.87234043" y="0" width="10.6099291" height="23.8857143" rx="5.30496454"></rect>
                                    <polygon id="Shadow" fill-opacity="0.1" fill="#000000" points="0 11.5616402 12.4822695 17.9928571 12.4822695 7.77857143"></polygon>
                                </g>
                                <g id="Face" transform="translate(13.106383, 13.828571)">
                                    <g id="Base" fill="#FFD1A5">
                                        <path d="M19.3475177,0 C27.9647266,-1.58295559e-15 34.9503546,6.98562802 34.9503546,15.6028369 L34.9503546,29.654306 C34.9503546,38.2715148 27.9647266,45.2571429 19.3475177,45.2571429 C10.7303089,45.2571429 3.74468085,38.2715148 3.74468085,29.654306 L3.74468085,15.6028369 C3.74468085,6.98562802 10.7303089,1.58295559e-15 19.3475177,0 Z" id="Face-Copy-2"></path>
                                        <path d="M34.8344176,21.9662843 C37.0117673,22.7014144 38.5794365,24.7606821 38.5794365,27.1860985 L38.5794365,27.1860985 L38.5794365,28.1129542 C38.5794365,30.7163862 36.7732014,32.8979494 34.3455181,33.472857 C34.6650371,32.1490767 34.8347556,30.7672471 34.8347556,29.3457776 L34.8347556,29.3457776 Z" id="Combined-Shape-Copy-3"></path>
                                        <path d="M0.484597214,21.9662843 C2.66194683,22.7014144 4.22961606,24.7606821 4.22961606,27.1860985 L4.22961606,27.1860985 L4.22961606,28.1129542 C4.22961606,30.7163862 2.42338099,32.8979494 -0.00430235305,33.472857 C0.315216682,32.1490767 0.484935212,30.7672471 0.484935212,29.3457776 L0.484935212,29.3457776 Z" id="Combined-Shape-Copy-4" transform="translate(2.114808, 27.723077) scale(-1, 1) translate(-2.114808, -27.723077) "></path>
                                    </g>
                                    <g transform="translate(4.154035, 23.925944)">
                                        <g id="eyes-+-nose-+-mouth" transform="translate(4.398398, 0.000000)" stroke="#332316" stroke-width="1.7">
                                            <path d="M13.9808769,14.5330089 C11.9727439,12.9866163 9.93274367,12.9054993 7.86087606,14.2896579" id="Mouth" stroke-linecap="round" transform="translate(10.920876, 13.921009) scale(-1, -1) translate(-10.920876, -13.921009) "></path>
                                            <g id="eyes" transform="translate(0.516875, 0.000000)">
                                                <g id="eyes-copy-2" transform="translate(1.224000, 0.000000)" fill="#332316">
                                                    <circle id="Oval-Copy" transform="translate(2.142000, 2.142000) scale(-1, 1) translate(-2.142000, -2.142000) " cx="2.14200028" cy="2.14200028" r="2.14200028"></circle>
                                                </g>
                                                <g id="eyes-copy-3" transform="translate(10.404001, 2.142000) scale(-1, 1) translate(-10.404001, -2.142000) ">
                                                    <circle id="Oval-Copy" fill="#332316" cx="3.36600043" cy="2.14200028" r="2.14200028"></circle>
                                                    <path d="M6.21711994,0.83465038 C4.17891265,-0.189931783 2.10653933,-0.271213044 0,0.590806599" id="Path-3-Copy-5" stroke-linecap="round"></path>
                                                    <path d="M20.8080027,0.83465038 C18.7697954,-0.189931783 16.6974221,-0.271213044 14.5908827,0.590806599" id="Path-3-Copy-5" stroke-linecap="round" transform="translate(17.699443, 0.417325) scale(-1, 1) translate(-17.699443, -0.417325) "></path>
                                                </g>
                                            </g>
                                            <line x1="11.2420787" y1="4.43427766" x2="11.2420787" y2="10.1354918" id="Nose" opacity="0.149999991" stroke-linecap="round"></line>
                                        </g>
                                        <g id="Cheeks" opacity="0.5" transform="translate(0.000000, 8.048294)" fill="#000000" fill-opacity="0.1">
                                            <path d="M3.46910849,0.166554108 C6.91599204,0.166554108 9.71024325,2.98076425 9.71024325,6.45226839 C9.71024325,8.38039965 8.84825119,10.1057638 7.49121034,11.2587966 C3.78804297,9.10437291 1.05235416,5.46847817 0.0957398128,1.16278684 C1.06840497,0.532389628 2.226337,0.166554108 3.46910849,0.166554108 Z" id="Combined-Shape" transform="translate(4.903150, 5.712424) rotate(-1.000000) translate(-4.903150, -5.712424) "></path>
                                            <path d="M23.9861487,0.0830506833 C27.4330323,0.0830506833 30.2272835,2.89726083 30.2272835,6.36876497 C30.2272835,8.29689623 29.3652914,10.0222604 28.0082506,11.1752932 C24.3050832,9.02086948 21.5693944,5.38497475 20.61278,1.07928342 C21.5854452,0.448886203 22.7433772,0.0830506833 23.9861487,0.0830506833 Z" id="Combined-Shape-Copy-5" transform="translate(25.420190, 5.628921) scale(-1, 1) rotate(-1.000000) translate(-25.420190, -5.628921) "></path>
                                        </g>
                                    </g>
                                </g>
                                <g id="Hair---front" transform="translate(10.609929, 6.914286)">
                                    <path d="M0,22 C0,9.8497355 9.77987922,0 21.8439716,0 C33.908064,0 43.6879433,9.8497355 43.6879433,22 L43.6879433,32.6857143 C37.4044617,31.0840255 32.1410982,23.5565689 29.1848056,17.2331494 C25.2994794,24.149539 18.5155357,28.7311353 10.7964457,28.7311353 C9.23632923,28.7311353 7.71441253,28.5439815 6.24690619,28.1882236 C4.02049854,27.6484902 1.91932742,26.7206803 0,25.4695694 L0,22 Z" id="Hair-pollina-Copy-2" fill="#8B572A"></path>
                                    <path d="M29.9416002,15.1713449 C29.1200133,17.1638672 28.2931442,18.6885417 27.4609929,19.7453683" id="Path-7-Copy-2" stroke="#4A2709" stroke-width="1.7" stroke-linecap="round"></path>
                                    <path d="M20.7871232,15.7142857 C14.8946144,21.8960565 8.58968676,24.6986421 1.87234043,24.1220424" id="Path-11-Copy-2" stroke="#4A2709" stroke-width="1.7" stroke-linecap="round"></path>
                                    <path d="M43.6674893,23.3578088 C43.6674893,23.3578088 38.9284742,29.7338683 30.0147183,29.3456547" id="Path-11-Copy-3" stroke="#4A2709" stroke-width="1.7" stroke-linecap="round" transform="translate(36.841104, 26.360249) rotate(69.000000) translate(-36.841104, -26.360249) "></path>
                                </g>
                            </g>
                        </g>
                        <g id="Body" transform="translate(0.000000, 57.200000)">
                            <rect id="Rectangle" x="18.0992908" y="0" width="69.9007092" height="57.2"></rect>
                            <g transform="translate(0.000000, 0.025781)">
                                <path d="M85.1914894,16.6147924 L77.0780142,55.9170759 L67.4042553,56.1027623 C67.5188835,55.6120404 67.603841,55.2484083 67.6591277,55.011866 C68.5331444,51.2724176 69.181972,48.5125026 69.6056105,46.7321211 C73.7729144,29.2186275 76.5757723,18.8652307 78.0141844,15.6719308 C79.6927467,11.9454933 82.0851817,12.2597805 85.1914894,16.6147924 Z" id="Shirt-Copy-3" fill="#048EF7" transform="translate(76.297872, 34.598623) scale(-1, 1) translate(-76.297872, -34.598623) "></path>
                                <g id="Arm" transform="translate(0.000000, 11.288504)">
                                    <path d="M16.1842863,10.5058231 C13.3558658,6.78411553 11.7512928,5.20746933 11.3705674,5.77588451 C10.7994792,6.62850727 11.3705674,7.96880445 11.3705674,8.08437015 C11.3705674,8.19993585 5.97326574,6.41059433 5.29704122,5.77588451 C4.62081671,5.14117469 0,4.29469031 0,5.77588451 C0,7.2570787 0.545794548,16.6113756 7.52654034,15.39137 C12.1803709,14.5780329 15.0662862,12.9495173 16.1842863,10.5058231 Z" id="Path-15" fill="#FFD1A5"></path>
                                    <path d="M38.8921517,4.8845943 L30.9201297,44.1868778 C23.0900604,45.0349758 18.2644364,44.6820182 16.4432575,43.128005 C12.4951437,39.7590768 6.1213877,22.8521158 6.96428967,18.1803488 C7.82915004,13.3868778 18.6129954,8.28075741 18.8035516,9.61544924 C21.1010047,25.7072461 23.1508533,35.3996885 24.0670515,31.4898407 C27.8631519,15.290099 30.9632906,5.2660273 32.315495,2.26410995 C33.9940573,-1.46232759 36.1862762,-0.588832805 38.8921517,4.8845943 Z" id="Shirt-Copy-4" fill="#048EF7"></path>
                                </g>
                                <g id="Rectangle" transform="translate(29.957447, 7.278359)">
                                    <mask id="mask-5" fill="white">
                                        <use xlink:href="#path-4"></use>
                                    </mask>
                                    <use id="Mask" fill="url(#linearGradient-3)" xlink:href="#path-4"></use>
                                    <rect fill="#FFD1A5" mask="url(#mask-5)" x="1.87234043" y="-1.01842582" width="41.8156028" height="9.42857143" rx="4.28400055"></rect>
                                </g>
                                <ellipse id="Oval-Copy-4" fill="#FFFFFF" cx="52.7375887" cy="24.1742188" rx="1" ry="1"></ellipse>
                                <ellipse id="Oval-Copy-5" fill="#FFFFFF" cx="52.7375887" cy="20.4027902" rx="1" ry="1"></ellipse>
                                <path d="" id="Path-6-Copy-2" stroke="#979797" stroke-width="1.7"></path>
                                <polyline id="Path-10-Copy-3" stroke="#130A44" stroke-width="1.7" stroke-linecap="round" points="73.6316766 20.0166853 72.6720412 44.1955078 75.5177305 54.8582031"></polyline>
                                <polyline id="Path-10-Copy-4" stroke="#130A44" stroke-width="1.7" stroke-linecap="round" transform="translate(32.004405, 37.437444) scale(-1, 1) translate(-32.004405, -37.437444) " points="31.5411957 20.0166853 30.5815603 44.1955078 33.4272496 54.8582031"></polyline>
                                <path d="" id="Path-12-Copy" stroke="#979797" stroke-width="1.7"></path>
                            </g>
                        </g>
                    </g>
                </g>
            </g>
        </g>
    </g>
</svg>