<?xml version="1.0" encoding="UTF-8"?>
<svg width="28px" height="30px" viewBox="0 0 28 30" version="1.1" xmlns="http://www.w3.org/2000/svg" xmlns:xlink="http://www.w3.org/1999/xlink">
    <title>3CC85EF8-AA1B-41E4-AAA7-85F68DB1B016</title>
    <defs>
        <rect id="path-1" x="0" y="0" width="28" height="30"></rect>
        <linearGradient x1="50%" y1="0%" x2="50%" y2="100%" id="linearGradient-3">
            <stop stop-color="#0D89F0" offset="0%"></stop>
            <stop stop-color="#053783" offset="100%"></stop>
        </linearGradient>
        <path d="M1.55468001,1.38581715 C4.02366158,0.409613896 6.40402402,-0.0508433975 8.69576732,0.00444526432 C10.9964689,0.0599500466 13.1880019,0.6347617 15.2703663,1.72888022 C15.7019774,1.95565639 15.9809512,2.39431421 16.003313,2.88136197 L16.7050267,17.7072773 L0,17.7072773 L0.686507946,12.4482486 L0.686507946,2.66265177 C0.686507469,2.0992241 1.03072125,1.59298364 1.55468001,1.38581715 Z" id="path-4"></path>
    </defs>
    <g id="News-App-Designs" stroke="none" stroke-width="1" fill="none" fill-rule="evenodd">
        <g id="signal-app-icons-and-image-sheet" transform="translate(-432.000000, -1391.000000)">
            <g id="author1" transform="translate(432.000000, 1391.000000)">
                <mask id="mask-2" fill="white">
                    <use xlink:href="#path-1"></use>
                </mask>
                <g id="Mask"></g>
                <g id="author" mask="url(#mask-2)">
                    <g transform="translate(1.185185, 0.925926)" id="Character---Woman-03">
                        <g transform="translate(-0.000000, 0.000000)">
                            <g id="Head">
                                <rect id="Boundary" x="0" y="0" width="25.62963" height="35.2407412"></rect>
                                <g transform="translate(4.539308, 2.517196)">
                                    <g id="Hair---Back" transform="translate(0.037412, 0.745917)">
                                        <path d="M6.17857152,21.0529104 C2.76624069,21.0529104 2.19424684e-15,18.2866697 0,14.8743388 L0,8.00925937 L0,8.00925937 C0,3.58586756 3.58586756,0 8.00925937,0 C12.4326512,0 16.0185187,3.58586756 16.0185187,8.00925937 L16.0185187,15.1031748 C16.0185187,18.389123 13.3547314,21.0529104 10.0687832,21.0529104 L10.0687832,21.0529104 L10.0687832,21.0529104 L6.17857152,21.0529104 Z" id="Color-Copy-4" fill="#0051B5"></path>
                                        <path d="M6.17857152,21.0529104 C2.76624069,21.0529104 2.19424684e-15,18.2866697 0,14.8743388 L0,8.00925937 L0,8.00925937 C0,3.58586756 3.58586756,0 8.00925937,0 C12.4326512,0 16.0185187,3.58586756 16.0185187,8.00925937 L16.0185187,15.1031748 C16.0185187,18.389123 13.3547314,21.0529104 10.0687832,21.0529104 L10.0687832,21.0529104 L10.0687832,21.0529104 L6.17857152,21.0529104 Z" id="Color-Copy-4" fill-opacity="0.4" fill="#000000"></path>
                                    </g>
                                    <g id="Neck" transform="translate(6.215834, 14.187831)">
                                        <rect id="Base" fill="#FFD1A5" x="0.000149154563" y="0" width="3.8902117" height="8.69576732" rx="1.94510585"></rect>
                                        <path d="M0.000145580824,4.52073975 C-0.0158167422,5.10009894 1.28087196,5.66306376 3.8902117,6.20963421 L3.8902117,2.83184528 C1.31279661,3.37841573 0.0161079039,3.94138055 0.000145580824,4.52073975 Z" id="Shadow" fill-opacity="0.1" fill="#000000"></path>
                                    </g>
                                    <g id="Face" transform="translate(1.144180, 2.517196)">
                                        <g id="Base" fill="#FFD1A5">
                                            <path d="M6.86507946,0 C10.024645,-5.80402781e-16 12.585979,2.56133397 12.585979,5.72089955 L12.585979,10.7552912 C12.585979,13.9148567 10.024645,16.4761907 6.86507946,16.4761907 C3.70551389,16.4761907 1.14417991,13.9148567 1.14417991,10.7552912 L1.14417991,5.72089955 C1.14417991,2.56133397 3.70551389,5.80402781e-16 6.86507946,0 Z" id="Face-Copy-2"></path>
                                            <path d="M12.3146025,8.00920451 C13.1145975,8.29188963 13.6877737,9.05480477 13.6877737,9.95159239 L13.6877737,9.95159239 L13.6877737,10.1804284 C13.6877737,11.14505 13.0246067,11.9547806 12.1293217,12.1785712 C12.2502468,11.6843621 12.3147578,11.1687649 12.3147578,10.6381003 L12.3147578,10.6381003 Z" id="Combined-Shape-Copy-3"></path>
                                            <path d="M0.18661003,8.00920451 C0.986604953,8.29188963 1.55978118,9.05480477 1.55978118,9.95159239 L1.55978118,9.95159239 L1.55978118,10.1804284 C1.55978118,11.14505 0.896614153,11.9547806 0.00132922465,12.1785712 C0.122254313,11.6843621 0.186765287,11.1687649 0.186765287,10.6381003 L0.186765287,10.6381003 Z" id="Combined-Shape-Copy-4" transform="translate(0.779891, 10.093901) scale(-1, 1) translate(-0.779891, -10.093901) "></path>
                                        </g>
                                        <g transform="translate(1.338235, 8.695767)">
                                            <g id="eyes-+-nose-+-mouth" transform="translate(1.952319, 0.000000)" stroke="#332316" stroke-width="0.5">
                                                <path d="M5.80800067,4.98554584 C4.94174726,4.31847453 4.06174716,4.28348288 3.16800036,4.88057087" id="Mouth" stroke-linecap="round" transform="translate(4.488001, 4.721546) scale(-1, -1) translate(-4.488001, -4.721546) "></path>
                                                <g id="eyes" transform="translate(-0.000000, 0.000000)">
                                                    <g id="eyes-copy-2" transform="translate(0.528000, 0.000000)" fill="#332316">
                                                        <circle id="Oval-Copy" transform="translate(0.924000, 0.924000) scale(-1, 1) translate(-0.924000, -0.924000) " cx="0.924000106" cy="0.924000106" r="1"></circle>
                                                    </g>
                                                    <g id="eyes-copy-3" transform="translate(4.488001, 0.924000) scale(-1, 1) translate(-4.488001, -0.924000) ">
                                                        <circle id="Oval-Copy" fill="#332316" cx="1.45200017" cy="0.924000106" r="1"></circle>
                                                        <path d="M2.68189484,0.360045257 C1.80266818,-0.0819313563 0.908703229,-0.11699386 0,0.254857745" id="Path-3-Copy-5" stroke-linecap="round"></path>
                                                        <path d="M8.97600103,0.360045257 C8.09677437,-0.0819313563 7.20280942,-0.11699386 6.29410619,0.254857745" id="Path-3-Copy-5" stroke-linecap="round" transform="translate(7.635054, 0.180023) scale(-1, 1) translate(-7.635054, -0.180023) "></path>
                                                    </g>
                                                </g>
                                                <line x1="4.62188859" y1="1.51734004" x2="4.62188859" y2="3.4682058" id="Nose" opacity="0.149999991" stroke-linecap="round"></line>
                                            </g>
                                            <g id="Cheeks" opacity="0.5" transform="translate(0.000000, 2.944468)" fill="#000000" fill-opacity="0.1">
                                                <path d="M1.26539437,0.0607986736 C2.5292206,0.0607986736 3.55375419,1.08533226 3.55375419,2.3491585 C3.55375419,3.04910945 3.23949594,3.67566146 2.74437569,4.09541826 C1.39223613,3.31029764 0.392260988,1.98838104 0.0352875609,0.421811971 C0.389420332,0.192650277 0.812009557,0.0607986736 1.26539437,0.0607986736 Z" id="Combined-Shape" transform="translate(1.794347, 2.078121) rotate(-1.000000) translate(-1.794347, -2.078121) "></path>
                                                <path d="M8.78188455,0.030398647 C10.0457108,0.030398647 11.0702444,1.05493224 11.0702444,2.31875847 C11.0702444,3.01870943 10.7559861,3.64526144 10.2608659,4.06501823 C8.90872631,3.27989761 7.90875116,1.95798101 7.55177774,0.391411945 C7.90591051,0.16225025 8.32849973,0.030398647 8.78188455,0.030398647 Z" id="Combined-Shape-Copy-5" transform="translate(9.310837, 2.047721) scale(-1, 1) rotate(-1.000000) translate(-9.310837, -2.047721) "></path>
                                            </g>
                                        </g>
                                    </g>
                                    <g id="Hair---Front">
                                        <path d="M0.0374116038,8.00925937 C0.0374116038,3.58586756 3.62327917,0 8.04667098,0 C12.4700628,0 16.0559304,3.58586756 16.0559304,8.00925937 L16.0559304,11.8994711 C13.7520438,11.3163647 11.8221912,8.57593956 10.7382439,6.27385289 C8.96201491,11.0985451 1.26284457,11.6684391 0.559108479,11.2129631 C0.0899510879,10.9093125 -0.0839478706,9.84141121 0.0374116038,8.00925937 Z" id="Hair-pollina-Copy-2" fill="#0051B5"></path>
                                        <path d="M11.0157285,5.523238 C10.7144873,6.24863019 10.4113095,6.80369898 10.1061948,7.18844437" id="Path-7-Copy-2" stroke="#100C4F" stroke-width="0.5" stroke-linecap="round"></path>
                                        <path d="M7.65916942,5.72089955 C5.49863595,7.97141801 3.18688599,8.99171959 0.72391955,8.78180429" id="Path-11-Copy-2" stroke="#100C4F" stroke-width="0.5" stroke-linecap="round"></path>
                                    </g>
                                </g>
                            </g>
                            <g id="Body" transform="translate(0.000000, 20.824074)">
                                <rect id="Rectangle" x="0" y="0" width="25.62963" height="20.8240744"></rect>
                                <g transform="translate(0.915344, 0.009386)">
                                    <path d="M23.6845242,6.04873553 L20.7096564,20.3570166 L17.1626987,20.424617 C17.204728,20.2459662 17.2358783,20.1135833 17.2561496,20.0274683 C17.5766145,18.6660951 17.8145121,17.661328 17.9698424,17.0131672 C19.4978162,10.637253 20.5255056,6.86802391 21.0529104,5.70547994 C21.6683681,4.34884336 22.5455727,4.46326189 23.6845242,6.04873553 Z" id="Shirt-Copy-3" fill="#048EF7" transform="translate(20.423611, 12.595879) scale(-1, 1) translate(-20.423611, -12.595879) "></path>
                                    <path d="M6.52182549,6.04873553 L3.66137571,20.3570166 L0,20.424617 C1.99626702,11.6640513 3.30212939,6.60545019 3.91758709,5.2488136 C4.5330448,3.89217702 5.40112427,4.15881766 6.52182549,6.04873553 Z" id="Shirt-Copy-4" fill="#048EF7"></path>
                                    <g id="Rectangle" transform="translate(3.432540, 2.649739)">
                                        <mask id="mask-5" fill="white">
                                            <use xlink:href="#path-4"></use>
                                        </mask>
                                        <use id="Mask" fill="url(#linearGradient-3)" xlink:href="#path-4"></use>
                                        <rect fill="#FFD1A5" mask="url(#mask-5)" x="0.686507946" y="-0.370765296" width="15.3320108" height="3.43253973" rx="1.71626987"></rect>
                                    </g>
                                    <circle id="Oval-Copy-5" fill="#FFFFFF" cx="11.7850531" cy="7.42778357" r="1"></circle>
                                    <path d="" id="Path-6-Copy-2" stroke="#979797" stroke-width="0.5"></path>
                                    <polyline id="Path-10-Copy-3" stroke="#130A44" stroke-width="0.5" stroke-linecap="round" points="19.4460303 7.28721928 19.0941727 16.0896948 20.1375664 19.9715263"></polyline>
                                    <polyline id="Path-10-Copy-4" stroke="#130A44" stroke-width="0.5" stroke-linecap="round" transform="translate(4.183073, 13.629373) scale(-1, 1) translate(-4.183073, -13.629373) " points="4.01323338 7.28721928 3.66137571 16.0896948 4.70476946 19.9715263"></polyline>
                                    <path d="" id="Path-12-Copy" stroke="#979797" stroke-width="0.5"></path>
                                </g>
                            </g>
                        </g>
                    </g>
                </g>
            </g>
        </g>
    </g>
</svg>