<?xml version="1.0" encoding="utf-8"?>
<!-- Generator: Adobe Illustrator 21.0.2, SVG Export Plug-In . SVG Version: 6.00 Build 0)  -->
<svg version="1.1" id="Layer_1" xmlns="http://www.w3.org/2000/svg" xmlns:xlink="http://www.w3.org/1999/xlink" x="0px" y="0px"
	 viewBox="0 0 104 104" style="enable-background:new 0 0 104 104;" xml:space="preserve">
<style type="text/css">
	.st0{fill:#1E78F0;}
	.st1{fill:#F0B441;}
	.st2{fill:none;stroke:#DC8C2D;stroke-width:0.9;stroke-linecap:round;stroke-linejoin:round;}
</style>
<g id="relax" transform="translate(3.000000, 17.000000)">
	<g id="body" transform="translate(0.000000, 12.300000)">
		<path id="Path" class="st0" d="M90.2,12.7c0-0.3-0.1-0.5-0.4-0.6c0,0,0-0.1,0-0.1c-0.1-0.3-0.3-0.5-0.6-0.5
			c-8.7-0.6-17.3,1.5-26,1.2c-0.6-0.4-1.2-0.8-1.8-1.1c-2.4-1.5-5-2.8-7.5-4.2c-2.5-1.3-5.1-2.5-7.7-3.7c-2.3-1-4.9-2.1-7.5-1.7
			c-1.1,0.2-2.2,0.6-3.3,1.1c-0.6,0.3-5.4,2.5-7.2,3.2c-1.2,0.5-2.4,0.9-3.6,1.5c-1.2,0.5-15.9,6.2-18.4,7.2
			c-1.8,0.7-3.6,1.3-5.3,2.1C0,16.3-1.1,16-1.9,15.4c-0.5-0.3-1.2,0.2-1,0.7c0.1,0.3,0.6,1.4,0.8,2.1s2.7,6.8,4,10.4
			C2,29,2.3,29.3,2.7,29.2c4.3-1.3,8.4-3.1,12.4-4.9c-0.1,0.2-0.1,0.4-0.2,0.6c-1.2,2.4-1.7,5.4-2.4,7.8c-0.9,3-3.1,11-3.7,14.2
			c-0.7,3.5-1.3,5.8-2.2,9.2c-1,0.6-1.9,1.3-2.5,1.8c-0.4,0.3-0.5,1.4,0.1,1.4c4.5,0,9.6-0.2,14.1-0.2c0.6,0,0.9-0.4,1.1-1.2
			c0.1-0.8,1.2-3.1,1.9-8.5s2.9-12.9,4.8-19.1c1.4,0,8.9-0.3,12-0.4c3.1-0.1,6.2,0,9.2,0.8c0.1,0,0.3,0,0.4,0
			c0.8,0.6,2.5,0.4,3.4,0.4c1.7,0,3.3,0,5,0.1c5.2,0.4,10.4,1.1,15.5,1.3c2.6,0.1,5.1,0,7.7-0.3c1.9-0.2,3.8-0.3,5.6-0.6
			c1.7-0.3,3.3-1,4.4-2.4c1-1.3,1.5-2.9,1.7-4.5C91.4,20.6,90,16.7,90.2,12.7z"/>
		<path id="Path_1_" class="st0" d="M91.4,6c-0.2-0.9-0.1-1.9-0.4-2.8c-0.1-0.5-0.3-1-0.5-1.5c-0.1-0.2-0.1-0.4-0.2-0.6
			c0,0,0-0.1,0-0.2c0.1-0.2,0.1-0.5,0-0.7C90.2,0,90-0.1,89.8-0.2c0,0,0,0-0.1,0c-0.1-0.3-0.3-0.5-0.6-0.5c-1,0.1-1.7,0.6-2.1,1.2
			c-0.9,1-1.6,2.2-2,3.5c0,0.1,0,0.2,0,0.2s0.1,0.1,0.2,0.1l1.3,0.2c0,0.1,0,0.1,0,0.2c0.2,1.4,0.9,2.6,2.2,2.8
			C89.9,7.6,91.7,7.3,91.4,6z"/>
	</g>
	<g id="object" transform="translate(34.500001, 0.000000)">
		<path id="Path_2_" class="st1" d="M13.5,27.3c0.2-1-0.2-1.8-0.4-2.7c-0.1-0.4-0.6-0.5-0.8-0.5c-3.8-0.3-7.9-0.4-11.8-0.5
			c-0.3,0-0.6,0.2-0.7,0.4c-0.3,0.7-0.3,1.6-0.3,2.4c0,0.4,0.1,0.6,0.5,0.6c4.2,0.6,8.5,0.6,12.7,0.8C13.1,27.8,13.4,27.6,13.5,27.3
			z"/>
		<path id="Shape" class="st1" d="M66.3,0.7L66.3,0.7c0-0.5-0.2-1.5-0.7-1.8c-0.7-0.5-1.9-0.5-2.7-0.5C58.1-1.4,53.2-0.3,49,2.1
			c-4,2.3-7.1,5.7-9.6,9.6c-1.3,2.1-2.3,4.2-2.8,6.6c-0.3,1.2-0.5,2.4-0.4,3.6c0,0.6,0.1,1.2,0.3,1.8c-0.2-0.3-0.3-0.5-0.5-0.8
			c-1.1-1.4-2.9-2.4-4.6-2.8c-2.7-0.7-5.5,0.2-7.9,1.7c1.2,0.6,2.4,1.3,3.5,2c0.6,0.4,1.2,0.8,1.8,1.1c7.3,0.3,14.5-1.1,21.7-1.3
			c-0.5,0.3-0.9,0.7-1.3,1.1c-1.3,1.4-2.1,3.3-2.4,5.2c-0.1,0.6-0.1,1.3-0.1,1.9c-0.8-1.3-1.9-2.4-3.8-2.4c-3,0-5.6,1.8-7,4.3
			c-0.6-2-1.9-3.8-3.5-5.1c-2.4-1.9-5.7-2.4-8.7-1.8c-3.2,0.7-6.1,2.6-8.6,4.7c-2.5,2.1-4.6,4.6-6.4,7.4c-2.1,3.3-3.5,7.1-3.5,11
			c0,0.1,0,0.3,0.1,0.4c0.1,0.2,0.3,0.3,0.5,0.3c8.9,0.2,17.7,0.5,26.6,0.3c4.4-0.1,8.9-0.4,13.3-0.6c4.3-0.2,8.7-0.4,13-0.5
			c1,0,2,0,3-0.1c0.6,0,1.6,0,2.1-0.3c0.9-0.4,1.1-0.9,1.1-1.8c0-0.9,0.1-4.4,0.1-6.5c0-2.2,0.2-7.4,0.2-11.1
			c0-3.7,0.2-7.4,0.3-11.1c0.1-2.4,0.2-4.8,0.4-7.2c0.1-2,0.3-4,0.4-6C66.4,4.3,66.5,2.3,66.3,0.7z M54.4,19.7
			c-1.4-0.2-2-1.4-2.2-2.8c0-0.1,0-0.1,0-0.2l-1.3-0.2c-0.1,0-0.1,0-0.2-0.1c0-0.1-0.1-0.1,0-0.2c0.5-1.3,1.2-2.4,2-3.5
			c0.4-0.5,0.9-0.9,1.5-1.1c-0.2,2.7,0.3,5.5,1.5,8C55.2,19.8,54.8,19.8,54.4,19.7L54.4,19.7z"/>
	</g>
	<g id="object-lines" transform="translate(42.150002, 1.350000)">
		<path id="Path_3_" class="st2" d="M9,49.6c0,0-2,4.3-2.8,6.6c-1.1,3-6.1,13.6-6.1,13.6"/>
		<path id="Path_4_" class="st2" d="M44.4,48.9c0,0,3.1,7.9,4,10c1.3,3.2,4.7,11,4.7,11"/>
		<path id="Path_5_" class="st2" d="M54.2-1.4c-2.2,1.1-4.2,2.8-5.5,5c-3.2,5.2-3.1,12.1,0.7,16.9c-2.2,0.1-4.5,0.6-6.4,1.7"/>
	</g>
</g>
</svg>
