<?xml version="1.0" encoding="utf-8"?>
<!-- Generator: Adobe Illustrator 21.0.2, SVG Export Plug-In . SVG Version: 6.00 Build 0)  -->
<svg version="1.1" id="Layer_1" xmlns="http://www.w3.org/2000/svg" xmlns:xlink="http://www.w3.org/1999/xlink" x="0px" y="0px"
	 viewBox="0 0 104 104" style="enable-background:new 0 0 104 104;" xml:space="preserve">
<style type="text/css">
	.st0{fill:#1E78F0;}
	.st1{fill:#F0B441;}
	.st2{fill:#DC8C2D;}
</style>
<g id="News-App-Designs">
	<g id="signal-app-icons-and-image-sheet" transform="translate(-1104.000000, -1569.000000)">
		<g id="character6" transform="translate(1104.000000, 1569.000000)">
			<g id="boxer" transform="translate(25.000000, 15.000000)">
				<g id="body" transform="translate(0.000000, 0.220000)">
					<path id="Shape" class="st0" d="M55.3,31.9c1.2-1.9,2.3-4.5,3.1-7.7c1.2-4.6,1.5-11.7,1.2-17.1c0-0.2,0-0.6-0.6-0.6
						c-2.8-0.2-4.8-0.5-7.6,0c-0.2,0.1-0.4,0.3-0.5,0.5c-0.3,2.3-0.6,4.5-1,6.7c-0.1,0.6-0.5,3-1,5.1c-0.7-3.6-2.3-11.2-4.4-14.1
						c-1.5-2.1-3.6-3.5-6.2-4c-0.6-0.1-1.2-0.1-1.8-0.2c-0.8-0.2-1.5-0.3-2.3-0.4c-2.4-0.2-6.6-0.4-9-0.1C23.2,0.2,11.7,1.1,7.7,3.3
						c-3.8,2.2-7.3,5-10.1,8.4c-1.2,1.4-2.3,2.9-3.3,4.5c-2,2.8-3.4,5.9-4.3,9.2c-1.2,4.4-1.5,10.3,1.4,14.2
						c3.6,4.8,10.4,4.5,16.1,2.9c0,2.7,0,5.5-0.1,7.7C7.2,54.4,7.1,58.6,7,62.8C6.9,67,6.9,71.1,6.7,75.3c-0.1,2-0.3,8.9-0.4,10.3
						c-0.6,0.3-1.5,0.7-2,1.3c-0.6,0.6-0.3,1.6,0.6,1.7c4.4,0.4,8,0,12.5,0.1c0.1,0,0.3,0,0.4-0.1c0,0,0.1,0,0.1,0.1
						c0.9,0.3,1.1-1.2,1.1-1.5v0v0c0,0,0,0,0,0c0-0.1-0.1-1.3-0.1-1.7c0-1.2,0-2.5,0.1-3.7c0-1.1,0.1-2.5,0.1-3.7
						c0-1.3,0.3-13.1,0.4-17.7c0.1-4.7,0.3-9.2,0.4-13.9c0.1-5.1,0.2-12.5,0.4-17.6c2.3,0,4.5-0.4,6.8-0.4c1.1,0,2.3,0,3.4-0.1
						c0.1,2.3,0.6,4.6,0.9,6.9c0.2,2,0.2,4,0.5,5.9c0.3,2.1,1,12.6,1.1,14.7c0.1,2.1,0.2,4.3,0.3,6.4c0.3,4.3,0.6,8.6,0.7,12.9
						c0.1,2.4,0.3,10.5,0.3,12.2c0,0,0.2,1.2,0.9,1.3c2.3,0.1,4.2-0.2,6.5-0.2c1.9,0,3.9,0.2,5.8-0.2c1.1-0.2,0.9-1.8-0.2-1.9
						c-0.4,0-0.8-0.1-1.2-0.2v-0.1c-0.5-4.1-1.1-17.3-1.1-21.6c0-4.4-0.5-12.6-0.7-17c-0.1-2.1-0.4-6.4-0.6-8.5
						c-0.2-1.5-0.3-3.1-0.4-4.6c1.1,0.9,2.7,1.5,4.9,1.5c2.3,0.1,4-0.8,5.3-2l0,0c0.1-0.1,0.1-0.1,0.2-0.2l0,0c0,0,0.1-0.1,0.1-0.1
						C54.5,33,54.9,32.5,55.3,31.9z M2.2,28c-1.5-3.2,0-6.9,2.8-9.2c0.7-0.5,1.4-1,2.2-1.4c0.1,0.9,0.2,1.8,0.2,2.7
						c0,2.3-0.1,4.6-0.1,6.9c0,1,0.1,2.1,0.1,3.1C5.4,30.7,3.3,30.3,2.2,28z"/>
					<path id="Path" class="st0" d="M16.8-5.8c0.6,1.8,1.7,3.5,3.6,3.9c0.1,0,0.3,0,0.4,0c2.7,0.5,3.2-2.8,3-5.9l1.3-0.3
						c0.1,0,0.2-0.1,0.3-0.2c0.1-0.1,0.1-0.2,0-0.3c-0.8-1.6-1.8-3.1-3-4.4c-1.2-1.6-3.2-2.7-4.9-0.8c-0.9,1-1.2,2.4-1.2,3.8
						c-1.4,0.5-3.8,1.5-2.8,3.3C14-5.7,15.6-5.6,16.8-5.8z"/>
				</g>
				<g id="object" transform="translate(16.060001, 0.000000)">
					<path id="Path_1_" class="st1" d="M48.8-7.5c0-1.3-0.2-2.6-0.8-3.8C46.8-14,43.4-15,40.7-15c-1.3,0-3.4,0.5-4.6,1.1
						c-1.4,0.6-2.7,2.2-3.3,3.6c-1.3,3-0.8,7-0.5,9c0.4,2,2.2,4.6,2.5,5c-0.4,0.5-0.6,1.1-0.8,1.7c-0.1,0.5-0.4,1.6-0.2,2
						c0.2,0.3,0.7,0.4,1.5,0.4c2.8,0.2,5.7,0.2,8.5,0c0.4,0,0.8-0.5,0.7-0.9l-1.1-3c0-0.1,0-0.1-0.1-0.2c0.1,0,0.1-0.1,0.2-0.1
						C44.3,2.9,44.8,2,45.1,1c0.2-1,0.2-2,0.1-3c1.2-0.2,2.2-0.5,2.9-1.5C48.9-4.6,48.9-6.1,48.8-7.5z"/>
					<path id="Path_2_" class="st1" d="M16.7,32.6c1.1-0.7,2.1-1.6,2.8-2.7c1.6-2.5,0.8-5.7-0.7-8c-0.7-1.1-1.9-2.7-3-3.5
						c-1.3-0.8-3.6-1.3-5.1-1.1c-3.2,0.5-6.2,2.6-7.7,4S0,26-0.1,26.4c-0.6,0-1.3,0.1-1.9,0.3c-0.4,0.2-1.6,0.5-1.8,0.8
						C-4,27.9-3.7,28.3-3.4,29c1.3,2.5,2.8,4.9,4.5,7.2c0.3,0.4,0.9,0.4,1.1,0.1c0.7-0.8,1.3-1.7,2-2.5c0,0,0.1-0.1,0.1-0.2
						c0.1,0,0.1,0.1,0.2,0.1c0.9,0.3,2,0.5,2.8,0.2c0.9-0.4,1.8-0.9,2.6-1.5c0.8,0.9,1.8,1.5,3,1.6C14.3,34.1,15.6,33.3,16.7,32.6z"
						/>
				</g>
				<g id="object-lines" transform="translate(18.590001, 4.510000)">
					<path class="st2" d="M38-4.2c-0.1,0-0.2,0-0.3-0.1c-0.2-0.2-0.2-0.5,0-0.7c0.9-0.9,1.8-2,2.5-3.1c0.8-1.1,1-2,0.7-2.7
						c-0.2-0.5-0.6-0.9-1.2-1.1c-0.6-0.2-1.2-0.3-1.9-0.2c-2,0.1-3.8,0.8-5.4,2C32.2-10,32-10,31.8-10.3c-0.2-0.2-0.1-0.5,0.1-0.7
						c1.7-1.3,3.7-2,5.9-2.2c0.8-0.1,1.5,0,2.3,0.2c0.9,0.3,1.5,0.9,1.8,1.7c0.4,1,0.1,2.2-0.8,3.6c-0.8,1.2-1.6,2.2-2.6,3.2
						C38.2-4.3,38.1-4.2,38-4.2z"/>
					<path class="st2" d="M42.2-5.7C42.2-5.7,42.2-5.7,42.2-5.7l-2.9-0.1c-0.3,0-0.5-0.2-0.5-0.5c0-0.3,0.3-0.4,0.5-0.5l2.8,0.1
						c0.3,0,0.5,0.2,0.5,0.5C42.7-5.9,42.5-5.7,42.2-5.7z"/>
					<path class="st2" d="M36.9,0.4c-1.4,0-2.8-0.2-4.4-0.5c-0.3-0.1-0.4-0.3-0.4-0.6c0.1-0.3,0.3-0.4,0.6-0.4
						c2.8,0.6,5.1,0.7,7.9,0.1c0.3-0.1,0.5,0.1,0.6,0.4C41.2-0.3,41.1,0,40.8,0C39.4,0.3,38.1,0.4,36.9,0.4z"/>
					<path class="st2" d="M33.6-11.4c-0.2,0-0.4-0.1-0.5-0.3c-0.2-0.5-0.2-1,0-1.5c0.1-0.3,0.3-0.4,0.6-0.3c0.3,0.1,0.4,0.3,0.3,0.6
						c-0.1,0.3-0.1,0.6,0,0.9c0.1,0.2-0.1,0.5-0.3,0.6C33.7-11.4,33.6-11.4,33.6-11.4z"/>
					<path class="st2" d="M1.5,29.7c-0.1,0-0.3-0.1-0.3-0.1c-2.1-2.2-3.3-4.3-4.3-7.1c-0.1-0.2,0-0.5,0.3-0.6c0.2-0.1,0.5,0,0.6,0.3
						c1,2.7,2.1,4.7,4.1,6.8c0.2,0.2,0.2,0.5,0,0.7C1.7,29.6,1.6,29.7,1.5,29.7z"/>
					<path class="st2" d="M8.2,28.2c-0.2,0-0.4-0.1-0.5-0.3c-0.1-0.2,0.1-0.5,0.3-0.6c1-0.3,2-0.8,2.9-1.3c0.2-0.1,0.5-0.1,0.7,0.2
						c0.1,0.2,0.1,0.5-0.2,0.7c-1,0.6-2,1.1-3.2,1.4C8.2,28.2,8.2,28.2,8.2,28.2z"/>
				</g>
			</g>
		</g>
	</g>
</g>
</svg>
