<?xml version="1.0" encoding="utf-8"?>
<!-- Generator: Adobe Illustrator 21.0.2, SVG Export Plug-In . SVG Version: 6.00 Build 0)  -->
<svg version="1.1" id="Layer_1" xmlns="http://www.w3.org/2000/svg" xmlns:xlink="http://www.w3.org/1999/xlink" x="0px" y="0px"
	 viewBox="0 0 104 104" style="enable-background:new 0 0 104 104;" xml:space="preserve">
<style type="text/css">
	.st0{fill:#1E78F0;}
	.st1{fill:#F0B441;}
	.st2{fill:none;stroke:#DC8C2D;stroke-width:0.72;stroke-linecap:round;stroke-linejoin:round;}
</style>
<g id="News-App-Designs">
	<g id="signal-app-icons-and-image-sheet" transform="translate(-722.000000, -1569.000000)">
		<g id="character3" transform="translate(722.000000, 1569.000000)">
			<g id="strongman" transform="translate(18.000000, 12.000000)">
				<g id="body" transform="translate(6.000000, 0.000000)">
					<path id="Path" class="st0" d="M61.8,68.5c0.1-1.1-0.1-2.3-0.2-3.4c-0.2-1.6-0.4-3.1-0.6-4.7c-0.1-5.5-0.4-20.8-1.3-29.5
						c-0.9-9-2-21.1-11.6-25.2c-2.7-1.2-5.7-1.7-8.8-1.8c-3-0.2-10.3-0.2-14.1-0.1s-7.9,0.6-10.6,2.6c-2.5,1.9-3.7,4.8-4.3,7.8
						c-0.3,1.6-0.5,3.1-0.7,4.7c-0.7,2.5-1,5.2-1.4,7.7l-1.2,7.6c-1.1-4-1.8-8.1-2.3-12.2c0,0,0,0,0.1,0c1-0.9,2-2,1.8-3.4
						C7,18.5,7.1,18.3,7.1,18c-0.2-1.6-0.6-3.2-2.3-3.9c-1-0.4-2.2-0.6-3.2-0.3c-1.1-1-2.7-1-3.8-0.1c-1-0.7-2.5-0.6-3.6,0.2
						c-2,1.6-2.4,4.7-2.3,7.1c0.1,3,0.8,5.9,1.6,8.8c1,3.8,1.8,6.6,3.2,10.3c1.2,3.1,2.7,6.1,6.2,7.1c2.6,0.8,6.7,0.3,9.1-1.1
						c2.9-1.8,3.6-4.2,4.4-7.3c0.6-2.3,1-4.5,1.4-6.8c0,14.1,0.2,28.2,0.7,42.3c0.2,5,0.4,10.1,0.6,15.1c0,0-0.1,0-0.1,0
						c-0.5,0.3-1,0.7-1.5,1.1c-0.5,0.4-0.1,1.2,0.5,1.2h13.4c0.4,0,1-0.5,0.9-1.2c-0.5-17-1.7-33.6-1.4-50.5
						c0.1-3.7,0.2-7.4,0.3-11.1c1.6-0.4,3.3-0.5,5-0.3c0.1,0,0.3,0,0.4-0.1c0.6,16,1,32.1,1.3,48.1c0.1,4.7,0.2,9.4,0.3,14
						c0,0.6,0.3,1.2,1.2,1.2c1,0,12.5,0,12.5,0c0.9-0.1,0.5-0.9,0-1.4c-0.5-0.5-1-0.9-1-0.9s-0.2-4.6-0.2-5.9
						c-0.1-2.8-0.1-5.6-0.2-8.5c0-0.6,0-1.3-0.1-1.9c0.2,0,0.3,0,0.5,0c0.2,0.1,0.3,0.2,0.5,0.2c0.9,1,2,1.6,3.4,1.1
						c0.5-0.2,0.9-0.4,1.3-0.7c0.3,0,0.5,0,0.8,0c1.9,0,3.9-1.2,4.4-1.9C61.9,71,61.9,69.7,61.8,68.5z"/>
					<path id="Path_1_" class="st0" d="M25.2-4.3l1.5-0.2c0.4,1.4,1.2,2.7,2.4,3.6c0.6,0.5,2.1,0.4,3.2-0.2c1.1-0.6,0.9-2.4,1.1-3.6
						c0.5-0.1,1-0.2,1.4-0.4c0.9-0.5,1.3-1.5,0.7-2.3c-0.5-0.7-1.6-1.2-2.6-1.1h0c-0.7-1.6-2.2-3.5-4.3-3.3c-0.9,0.1-1.5,0.5-1.8,1
						c0,0,0,0,0,0c-1.2,1.9-1.9,4.1-2,6.3C24.6-4.4,24.9-4.3,25.2-4.3z"/>
				</g>
				<g id="object" transform="translate(0.000000, 15.479999)">
					<path id="Path_2_" class="st1" d="M-1.6-6.7c-2-0.7-3.9-0.2-5.5,1.4c-1.4,1.5-2.4,3.4-2.7,5.4c-0.3,2.4-0.4,4.9,0.6,7.2
						c1.4,3.3,4.8,5.2,7.9,3.8C-1.7,9.3-2,7.5-2.1,5.6c-0.1-2.4,0.3-5.5,2.3-7.1c0.6-0.4,1.3-0.7,2-0.7c0-0.1-0.1-0.2-0.1-0.3
						C1.5-4.2,0.3-6.1-1.6-6.7z"/>
					<path id="Path_3_" class="st1" d="M57.1,57.9c-0.7,0.1-1.9-0.2-2.4-0.8c-0.6-0.8-1-1.7-1.3-2.7c-0.3-1.1-0.5-2.8,0.2-4.2
						c0.2-0.4,0.6-0.8,0.9-1.2c0,0,0.3-4.4,0.4-6.4c-1.3,0-2.7,0.3-3.8,0.9c-0.5,0.3-0.9,0.8-1.2,1.3c-0.4,0.5-0.8,1-1,1.6
						c-0.7,1.5-0.9,3.3-0.8,5c-0.2,1.6,0,3.3,0.5,4.8c1,2.8,3.5,5.2,6.7,4.9c1.4-0.1,2.7-0.9,3.5-2C58.2,59,57.6,58.5,57.1,57.9z"/>
					<path id="Path_4_" class="st1" d="M18.6-5.5c-0.9-1-2.1-1.5-3.5-1.5c-1.3-0.1-2.9,0.2-4,0.9c-0.5,0.3-0.9,0.8-1.2,1.3
						c-0.4,0.5-0.8,1-1,1.6c-0.7,1.5-0.9,3.3-0.8,5C8,3.5,8.1,5.1,8.7,6.7c1,2.8,3.5,5.2,6.7,4.9c1.6-0.2,3-1.1,3.8-2.4
						c0.5-0.6,1-1.4,1.2-2.1c1-2.8,0.6-6-0.2-8.8C19.9-3.1,19.5-4.5,18.6-5.5z"/>
					<path id="Path_5_" class="st1" d="M76.4,47.5c-0.3-1.3-0.7-2.7-1.6-3.7c-0.9-1-2.1-1.5-3.5-1.5c-1.3-0.1-2.9,0.2-4,0.9
						c-0.5,0.3-0.9,0.8-1.2,1.3c-0.4,0.5-0.8,1-1,1.6c-0.7,1.5-0.9,3.3-0.8,5c-0.2,1.6,0,3.3,0.5,4.8c1,2.8,3.5,5.2,6.7,4.9
						c1.6-0.2,3-1.1,3.8-2.4c0.5-0.6,1-1.4,1.2-2.1C77.5,53.5,77.1,50.3,76.4,47.5z"/>
				</g>
				<g id="object-lines" transform="translate(1.800000, 16.079999)">
					<line id="Path_6_" class="st2" x1="-5.5" y1="1.8" x2="-3.9" y2="1.9"/>
					<path id="Path_7_" class="st2" d="M51.2,43.8c-1.1,0.5-1.9,1.6-2.3,2.8c-0.3,1.2-0.3,2.5-0.2,3.7c0.1,1.2,0.2,2.5,0.4,3.7
						c0.3,2.1,0.8,4.4,2.6,5.4"/>
					<line id="Path_8_" class="st2" x1="15" y1="1.7" x2="20" y2="1.5"/>
					<line id="Path_9_" class="st2" x1="72.5" y1="50.8" x2="76.2" y2="50.4"/>
					<path id="Path_10_" class="st2" d="M68.3,43.3c-1.2,0.4-2.2,1.5-2.7,2.7c-0.5,1.2-0.7,2.5-0.8,3.8c-0.1,1.1-0.2,2.3,0,3.4
						c0.1,0.8,0.3,1.5,0.6,2.2c0.6,1.4,1.6,2.7,3.1,2.9"/>
					<path id="Path_11_" class="st2" d="M13.2-6.9c-1.5,0.3-2.7,1.4-3.4,2.8c-0.7,1.4-0.9,2.9-1,4.4C8.7,2.1,8.7,4,9.1,5.7
						c0.4,1.7,1.2,3.3,2.4,4.5"/>
					<path id="Path_12_" class="st2" d="M-4.8-6.8C-6-6.5-7.9-4.3-8.3-3.2C-9.9,1.3-9.9,5.5-7.3,9.4"/>
					<path id="Path_13_" class="st2" d="M72.3,48.7c-0.1-0.4-0.5-0.6-0.9-0.5c-0.4,0.1-0.7,0.4-0.8,0.7c-0.1,0.4-0.2,0.7-0.2,1.1
						c0,0.9,0.1,1.8,0.2,2.7c0,0.3,0.1,0.5,0.3,0.8c0.3,0.5,1,0.5,1.5,0.3c0.5-0.3,0.8-0.8,0.8-1.4"/>
					<path id="Path_14_" class="st2" d="M16.1,0.3c-0.3-0.6-1-1.4-1.6-1.2c-0.5,0.2-0.9,0.8-1.1,1.4c-0.1,0.7-0.1,1.3,0.1,2
						c0.1,0.4,0.2,0.7,0.4,1C14.3,4,15,4.2,15.6,3.9c0.5-0.3,0.7-1.1,0.7-1.1"/>
				</g>
			</g>
		</g>
	</g>
</g>
</svg>
