<?xml version="1.0" encoding="utf-8"?>
<!-- Generator: Adobe Illustrator 21.0.2, SVG Export Plug-In . SVG Version: 6.00 Build 0)  -->
<svg version="1.1" id="Layer_1" xmlns="http://www.w3.org/2000/svg" xmlns:xlink="http://www.w3.org/1999/xlink" x="0px" y="0px"
	 viewBox="0 0 104 104" style="enable-background:new 0 0 104 104;" xml:space="preserve">
<style type="text/css">
	.st0{fill:#1E78F0;}
	.st1{fill:#F0B441;}
	.st2{fill:#DC8C2D;}
</style>
<g id="News-App-Designs">
	<g id="signal-app-icons-and-image-sheet" transform="translate(-850.000000, -1569.000000)">
		<g id="character4" transform="translate(850.000000, 1569.000000)">
			<g id="reading" transform="translate(23.000000, 12.000000)">
				<g id="body">
					<path id="Path" class="st0" d="M31.5-1.2c0.7-0.9,0.9-2.1,1-3.2c0-1.1,0-2.3-0.2-3.4c-0.2-1.1-0.5-2.2-1.4-2.9
						c-1.6-1.3-4-0.9-5.2,0.7c-1.1,1.5-1.3,3.6-1,5.4c0,0.4,0,0.8,0,1.2c0,1.8,2.1,3.5,3.8,3.6C29.7,0.3,30.8-0.3,31.5-1.2z"/>
					<path id="Path_1_" class="st0" d="M63.4,22.1c-1.5-4.9-3.4-9.8-6.8-13.7c-0.3-0.3-0.7-0.1-0.8,0.2c-0.2,0.5-0.3,1.1-0.2,1.6
						l0,0c-0.1-0.1-0.2-0.3-0.3-0.4c-0.9-1.1-1.9-2.1-3.1-3c-0.4-0.3-0.9-0.6-1.5-0.6c-0.5,0.1-0.8,0.5-0.8,1c0.1,1,1,1.8,1.6,2.5
						c0.5,0.6,1.9,2.5,1.9,2.5c-0.1,0.2-0.2,0.4-0.4,0.6c-0.5-0.5-1.3-1.7-1.6-2.1c-2.2-2.6-3.1-3.1-3.7-2.4s0.5,2.4,1.2,3.3
						c0.9,1.1,1.7,2.2,2.4,3.4c0,0.1-0.3,0.3-0.4,0.4c-0.4-0.6-0.9-1.2-1.4-1.7c-0.4-0.4-1-1-1.6-1c-0.5,0-0.7,0.4-0.7,0.9
						c0.1,1.1,0.8,2.1,1.4,3.1c0.9,1.6,1.9,4.1,2.3,4.8c0.4,0.8,1,2.4,1.3,3.2c0.2,0.5,0.3,0.9,0.5,1.4c-0.2,0-0.3,0-0.5,0
						c-0.9,0.1-1.9,0.3-2.8,0.4c-0.4-1.5-1.3-3-2-4.1c-1.6-2.1-3.6-3.7-6-4.7c-5.7-2.5-12.3-1.6-18,0.4c-4.9,1.7-9.5,4.6-12.4,8.9
						c-0.5-0.1-1.1-0.2-1.6-0.2C8.1,26.7,7,26.5,6,26.4c-0.2,0-0.3,0-0.5,0c0.4-1.3,0.9-2.5,1.6-3.7c0.7-1.2,1.6-2.8,2.4-4.4
						c0.5-0.9,2-3.7,2.1-4.8c0.1-0.4-0.2-0.9-0.7-0.9c-0.6,0-1,0.3-1.4,0.8C9,13.8,8,14.9,7.6,15.5c0-0.1-0.3-0.3-0.3-0.3
						c0.1-0.1,0.9-1.4,1.4-2.1c0.5-0.7,1-1.7,1.5-2.5c0.5-0.7,0.7-1.7,0.1-2.1C9.6,8,9,8.5,8.3,9.1c-0.6,0.6-1.2,1.3-1.7,2
						c-0.4,0.4-0.8,1.2-1.4,1.7c-0.1-0.2-0.5-0.4-0.6-0.6c0,0,1.4-1.7,1.9-2.3C7.1,9.2,8,8.5,8.1,7.6c0.1-0.5-0.2-1-0.8-1
						C6.8,6.5,6.3,6.9,5.9,7.2c-1.2,0.8-2.2,1.9-3,3c-0.1,0.1-0.2,0.3-0.3,0.4c0-0.5-0.1-1.1-0.2-1.6C2.2,8.6,1.7,8.4,1.4,8.7
						c-3.5,3.9-5.4,8.8-6.8,13.7c-1.4,4.6-2.8,9.4-2,14.3c0.3,1.8,0.8,3.5,1.5,5.1c0.7,1.5,1.7,2.9,3.1,3.7c1.7,0.9,4,0.7,5.7,0.2
						c1.9-0.5,3.4-1.7,4.8-3c0.8-0.9,1.6-1.8,2.3-2.8c0.9-1.2,1.8-2.4,2.5-3.7c0.6-1.1,1.1-2.3,1.5-3.5c0.2-0.6,0.4-1.1,0.5-1.7
						c0.1,0.1,0.2,0.1,0.4,0.2c0,0.4,0.1,0.7,0.1,1.1c0.1,1.3,0.1,2.6,0.1,3.9c0,2.5,0,5,0,7.5c0.2,5.3,0.4,10.6,0.4,15.9
						c0,2.6,0.2,12.7,0.3,15.3C16,77.4,16,88,16,88s-1.3,1-1.5,1.3c-1.1,1-1.1,1.8,0,2.3c1.5,0,12.7,0,12.7,0
						c0.4-0.1,0.8-0.4,1.1-0.7c0.4-0.6,0.1-2.3,0.1-5.4c0-3.1-0.2-14.1-0.2-16.7c0-2.6,0-5.2-0.1-7.8C27.9,55.7,28.3,50.3,28,45
						c-0.2-2.6-0.3-5.2-0.3-7.8c0-1.3,0-2.6,0-3.9c0,0,0-0.1,0-0.1c0.9,0,1.7-0.1,2.6-0.2c0.7-0.1,1.4-0.2,2.2-0.4
						c0.1,0.9,0.1,1.8,0.1,2.7c-0.1,2.6-0.1,5.3,0,7.9c0.3,5.3,0.6,10.5,0.7,15.8c0.1,5.4,0.3,22.1,0.4,25c0,1.4,0,2.7-0.1,4.1
						c0,1-0.1,2.5,0.2,3.1c0.3,0.6,1.4,0.6,1.4,0.6h11.3c1.7,0,2.6-0.7,1.6-1.6c-0.7-0.7-2.5-1.7-2.5-1.7s0-2.6,0-3.7
						c0-2.7-0.2-15.6-0.3-21c0-5.4-0.5-14.1-0.7-19.5c-0.1-2.7-0.3-5.4-0.5-8.2c-0.1-1.3-0.2-2.6-0.2-3.9c0-0.2,0-0.4,0-0.7
						c0.1,0.2,0.2,0.5,0.2,0.7c0.4,1.2,0.9,2.4,1.5,3.5c0.7,1.3,1.6,2.5,2.5,3.7c0.7,1,1.4,1.9,2.2,2.8c1.3,1.4,2.9,2.5,4.8,3
						c1.8,0.5,4,0.7,5.7-0.2c1.5-0.8,2.4-2.3,3.1-3.7c0.7-1.6,1.3-3.3,1.5-5.1C66.2,31.5,64.8,26.7,63.4,22.1z"/>
				</g>
				<path id="object" class="st1" d="M53,24.8c-0.3-0.7-0.9-2.4-1.3-3.2c-0.4-0.8-1.4-3.2-2.3-4.8c-0.5-0.9-1.3-2-1.4-3.1
					c0-0.4,0.2-0.9,0.7-0.9c0.6,0,1.2,0.6,1.6,1c0.5,0.5,0.9,1.1,1.4,1.6c0-0.1,0.3-0.3,0.4-0.4c-0.7-1.2-1.5-2.3-2.4-3.4
					c-0.8-0.9-1.9-2.6-1.2-3.3c0.7-0.7,1.5-0.2,3.7,2.4c0.4,0.4,1.2,1.6,1.6,2.1c0.1-0.2,0.2-0.4,0.4-0.6c0,0-1.4-1.9-1.9-2.5
					c-0.6-0.7-1.5-1.5-1.6-2.5c-0.1-0.5,0.2-1,0.8-1C52.1,6.4,52.6,6.7,53,7c1.2,0.8,2.2,1.8,3,3c0.1,0.1,0.2,0.3,0.3,0.4
					c0.1,0,0.2,0.1,0.2,0.1c0-4.3-0.1-8.8-0.2-12.3c-0.1-2.6-0.2-5.2-0.2-7.8c0-0.2-0.1-0.4-0.2-0.5c-0.1-0.1-0.3-0.2-0.5-0.2
					c-1.8,0.2-3.6,0.5-5.4,0.8c-1.8,0.3-3.6,0.7-5.4,1.3c-1.8,0.5-3.6,1.1-5.4,1.7c-1.3,0.4-3.5,1.3-5.5,2.2
					c-3.1,0.3-8.9,0.2-8.9,0.2c-1.9-1-5.5-2.1-6.5-2.4c-2-0.6-5.7-1.5-7.5-1.8C8.9-8.8,5.4-9.7,3.5-9.9c-1-0.1-1,1.1-1,2.6
					c0,0.9,0.6,9.4,0.7,18.1c0.1-0.2,0.3-0.3,0.4-0.5c0.9-1.1,1.9-2.2,3-3C7.2,7,7.7,6.7,8.3,6.7c0.5,0.1,0.8,0.5,0.8,1
					C8.9,8.7,8,9.3,7.4,10c-0.5,0.6-1.9,2.3-1.9,2.3c0.1,0.2,0.5,0.4,0.6,0.6c0.5-0.5,1-1.3,1.4-1.7c0.5-0.7,1.1-1.4,1.7-2
					c0.6-0.6,1.3-1.1,1.9-0.7c0.6,0.4,0.4,1.4-0.1,2.1c-0.5,0.8-1,1.7-1.5,2.5c-0.5,0.7-1.3,2-1.4,2.1c0,0.1,0.3,0.3,0.3,0.3
					c0.5-0.6,1.4-1.6,1.9-2.2c0.4-0.4,0.8-0.8,1.4-0.8c0.5,0,0.7,0.5,0.7,0.9c-0.1,1.1-1.6,3.8-2.1,4.8c-0.9,1.6-1.8,3.2-2.4,4.4
					c-0.9,1.7-1.7,3.9-2.4,6.5l-0.1,0.6l0.1,0c0.7,0.2,1.3,0.5,2,0.7c1.9,0.5,3.9,0.9,5.8,1.4c1.9,0.4,2.9,0.6,4.9,1.2
					c1.4,0.4,2.8,0.9,4.3,1.2c0.7,0.1,3.4,1.1,3.4,1.1c0,0.1,0,0.3,0.1,0.4s0.2,0.2,0.4,0.2c3.3,0,6.1,0,9.4-0.2
					c0.4,0,0.2-0.6,0.2-0.6s1.7-1,2.3-1.2c0.7-0.3,1.4-0.6,2.1-0.9c2-0.9,4-1.7,6.1-2.6c2.4-1,5.1-1.6,7.4-2.7
					C53.6,26.7,53.3,25.7,53,24.8z"/>
				<g id="object-lines" transform="translate(9.982361, 0.018909)">
					<path class="st2" d="M21.9-3.9c-0.1,0-0.2-0.1-0.3-0.1c-0.1-0.2-0.1-0.4,0.1-0.5c0.1-0.1,2.1-1.5,3.6-2.1
						C25.9-6.8,26.4-7,27-7.2c1.6-0.6,3.3-1.3,5-1.8l0.8-0.3c3-1,5.8-1.9,8.9-1.7c0.2,0,0.3,0.2,0.3,0.4v0.7c0,0.2-0.2,0.4-0.4,0.4
						s-0.4-0.2-0.4-0.4v-0.4c-2.8-0.1-5.5,0.8-8.3,1.7l-0.8,0.3c-1.6,0.5-3.3,1.2-4.9,1.8c-0.5,0.2-1.1,0.4-1.6,0.6
						c-1.5,0.6-3.5,2-3.5,2C22-3.9,22-3.9,21.9-3.9z"/>
					<path class="st2" d="M16.3-4c-0.1,0-0.1,0-0.2,0C9.3-7.4,3.3-9.2-3.3-9.8l0,0.4C-3.3-9.2-3.4-9-3.6-9c0,0,0,0,0,0
						C-3.8-9-4-9.2-4-9.4l0-0.8c0-0.1,0-0.2,0.1-0.3c0.1-0.1,0.2-0.1,0.3-0.1c6.9,0.6,13,2.4,20,5.9c0.2,0.1,0.2,0.3,0.2,0.5
						C16.5-4.1,16.4-4,16.3-4z"/>
					<path class="st2" d="M19.4-3.9c-0.1,0-0.1,0-0.2-0.1C17.6-5,15.8-6,14-6.7C10.2-8.2,7.2-9.2,3.5-9.9c-1.9-0.3-6.2-1-8-1.1v1.3
						c0,0.2-0.2,0.4-0.4,0.4c-0.2,0-0.4-0.2-0.4-0.4v-1.7c0-0.1,0-0.2,0.1-0.3c0.1-0.1,0.2-0.1,0.3-0.1c1.5,0.1,6.4,0.8,8.5,1.2
						c3.7,0.7,6.8,1.7,10.6,3.2c1.8,0.7,3.6,1.6,5.2,2.7c3-2.1,6.9-3.8,11.8-5.4c3.1-1,7.8-2.2,11.9-1.7c0.2,0,0.3,0.2,0.3,0.3
						l0.1,1.2c0,0.2-0.1,0.4-0.3,0.4c-0.2,0-0.4-0.1-0.4-0.3l0-0.9c-3.9-0.4-8.3,0.7-11.3,1.7c-5,1.6-8.9,3.3-11.8,5.4
						C19.5-3.9,19.5-3.9,19.4-3.9z"/>
					<path class="st2" d="M25.9,35.4c-0.2,0-0.4-0.2-0.4-0.4c0-2.1-0.1-6.5-0.2-8.5l0-0.7c-0.2-3.6-0.4-7.4-0.4-11.1
						c0-2-0.1-3.9-0.2-5.9c-0.1-1.6-0.2-3.3-0.2-5c0-2.2-0.5-7.6-0.5-7.7c0-0.2,0.1-0.4,0.3-0.4c0.2,0,0.4,0.1,0.4,0.3
						c0,0.2,0.5,5.6,0.5,7.8c0,1.6,0.1,3.3,0.2,4.9c0.1,1.9,0.2,3.9,0.2,5.9c-0.1,3.7,0.2,7.4,0.4,11.1l0,0.7c0.1,2,0.2,6.4,0.2,8.5
						C26.3,35.3,26.1,35.4,25.9,35.4z"/>
					<path class="st2" d="M15.4,35.7c-0.2,0-0.4-0.2-0.4-0.3l0-2.4c0-3.7,0-7.9-0.3-11.5c-0.2-2.8-0.2-5.7-0.3-8.5
						c0-1.6,0-3.1-0.1-4.7c-0.1-2.4-0.2-4.8-0.3-7.2c-0.1-1.3-0.2-4.6-0.2-4.6l0.7,0c0,0,0.1,3.4,0.2,4.6c0.1,2.4,0.2,4.8,0.3,7.2
						c0.1,1.6,0.1,3.2,0.1,4.7c0,2.8,0.1,5.7,0.3,8.5c0.3,3.6,0.3,7.8,0.3,11.5l0,2.4C15.7,35.6,15.6,35.7,15.4,35.7
						C15.4,35.7,15.4,35.7,15.4,35.7z"/>
				</g>
			</g>
		</g>
	</g>
</g>
</svg>
