<?xml version="1.0" encoding="utf-8"?>
<!-- Generator: Adobe Illustrator 21.0.2, SVG Export Plug-In . SVG Version: 6.00 Build 0)  -->
<svg version="1.1" id="Layer_1" xmlns="http://www.w3.org/2000/svg" xmlns:xlink="http://www.w3.org/1999/xlink" x="0px" y="0px"
	 viewBox="0 0 104 104" style="enable-background:new 0 0 104 104;" xml:space="preserve">
<style type="text/css">
	.st0{fill:#1E78F0;}
	.st1{fill:#F0B441;}
	.st2{fill:#DC8C2D;}
</style>
<g id="News-App-Designs">
	<g id="signal-app-icons-and-image-sheet" transform="translate(-973.000000, -1569.000000)">
		<g id="character5" transform="translate(973.000000, 1569.000000)">
			<g id="power-plug" transform="translate(24.000000, 15.000000)">
				<g id="body" transform="translate(15.793999, 0.000000)">
					<path id="Path" class="st0" d="M44.9,26.8c0.1-0.3,0-0.6-0.2-0.9c-0.4-0.3-1.7-0.9-2.6-1.3l0.2,0c1.2-0.2,0.7-2.1-0.5-1.9
						c-0.9,0.1-1.8,0.2-2.6,0.2c-1.3-0.9-2.2-2.1-3.1-3.4c-0.7-1-1.4-2-2-3c-1.4-4.1-3.2-8.2-6.3-11.4c-1.8-1.9-4-3.3-6.5-4.1
						c-2.6-0.9-6.1-1.5-8.3-1.8l0,0c-0.8-0.1-1.6-0.2-2.5-0.2C9.8-0.9,8.7-1,7.6-1l0,0c-2-0.5-5.3-0.5-7.2,0.3c-2.5,1-4.1,3-4.6,5.5
						c-1,4.7-1.4,9.5-1,14.3c0,1.1,0,2.2,0.1,3.3c0.3,4.2,1.7,7.6,2.6,10.2c0.9,2.7,3.2,8.6,4,11.3c0.7,2.4,0.5,8,0.1,11.6
						C1.2,58.3-0.7,70.1-1.1,73c-0.3,2.8-1.5,12.4-1.5,13.7C-2.7,87.9-2.4,89-1.4,89h15.9c1.3,0,0.6-1.5,0.2-1.9
						c-0.8-0.8-1.7-1.9-2.6-2.7c0.3-2.2,0.6-4.3,0.9-6.5c0.6-3.4,3.4-20.6,3.9-24c0.4-3.1,0.8-9-1.2-14.8c-0.9-2.6-1.9-5.1-2.9-7.6
						c1.6-0.3,3.1-0.7,4.7-1.1c0.1,0,0.2-0.1,0.3-0.1c0.8,1.8,1.6,3.6,2.3,5.1c1.2,2.6,2.3,5.2,3.3,7.9c1.2,3.4,1.4,5,1.2,8.1
						c-0.1,1.3-0.6,4.4-0.8,5.8c-0.5,3.4-2,10.6-2.6,14c-0.6,3.5-2.5,15-2.6,16.2c-0.1,1.2,0.2,1.8,1,1.8H35c0.8,0,0.9-0.9,0.4-1.6
						c-0.5-0.7-1.7-2.3-3-3.4c0.1-0.6,2.9-12.4,4.1-17.8c0.7-3,1.3-6,2-9.1c0.6-2.9,1-6.2,0.9-8.8c-0.1-2.6-1-5.1-1.4-6.4
						c-1.6-4.5-3.7-9.5-5.6-14.1c5.1,3,7.5,3.6,8.3,3.8c0.7,0.2,1.7,0.4,2.7,0c0.7-0.3,0.9-1.2,0.2-1.6c-0.1-0.1-0.2-0.1-0.4-0.2
						l0.7,0c0.6,0,1.2-0.7,0.8-1.3c-0.2-0.3-0.4-0.5-0.7-0.7c0.1,0,0.1-0.1,0.2-0.1C44.5,27.5,44.8,27.2,44.9,26.8z"/>
					<path id="Path_1_" class="st0" d="M7.5-6.8c0.7,0.3,1.4,0.5,2.2,0.6c0,0.7,0.2,1.3,0.6,1.9c0.5,0.8,1.5,1.3,2.5,1.3
						c2.3,0,3.6-2,4.1-4L18.3-7c0.1,0,0.2,0,0.3-0.1c0.1-0.1,0.1-0.2,0.1-0.3c-0.3-1.8-0.8-3.6-1.7-5.2c-0.2-0.6-0.6-1.2-1-1.6
						c-1.1-1-3.3-0.9-4.2-0.4c-0.9,0.5-1.4,1.9-1.7,2.9c0,0.2-0.1,0.3-0.1,0.5c-0.9-0.1-1.7-0.1-2.5,0.3C6.7-10.5,6-9.7,6-8.8
						C6-7.8,6.6-7.1,7.5-6.8z"/>
				</g>
				<path id="object" class="st1" d="M58.2,13.1c-0.4-1.6-1.9-6.8-3.2-6.8c-1.3,0-7.8,0-11,1.7c-1.6,0.8-2.6,2.1-3.6,3.6
					c-1,1.5-1.9,3-2.5,4.6c-0.1,0.4-0.3,0.8-0.4,1.2l0,0c0.4-0.2,0.7-0.4,1-0.7c0.7-0.7,1.6-1.3,2.5-1.8c0.4-0.2,1,0.1,1.1,0.5
					c0.2,0.8-0.3,1.2-0.7,1.8c0,0-0.1,0.1-0.1,0.1c1.8-0.3,3.6-0.4,5.3-0.5c0.9-0.1,1.3,1.3,0.4,1.6l-3.9,1.3c0,0.1,0,0.2,0,0.3
					l2.9-0.6c0.9-0.2,2.6-0.5,2.6,1c0,1.3-1.7,1.5-2.6,1.8c-0.9,0.3-1.8,0.6-2.7,0.9c-0.1,0.3-0.4,0.4-0.7,0.4l0,0
					c0.7-0.2,1.4-0.4,2.2-0.6c0.8-0.2,1.8-0.6,2.4,0c0.2,0.2,0.3,0.5,0.3,0.8c-0.3,0.9-1.3,1.1-2,1.5l-0.4,0.2
					c-1.8,1.1-3.7,2-5.7,2.5c-0.4,0.2-0.7,0.3-1.1,0.5c0.3,0.8,0.7,1.7,1.1,2.5c0.3,0.6,0.8,1.2,1.4,1.6c1.2,1.3,2.8,2.3,4.3,3
					c3.1,1.4,6.5,1.8,9.8,1.1c0.1,0,0.2-0.1,0.3-0.2c0.1,0,0.3-0.1,0.4-0.1c3.6-2.7,3.4-8.9,3.7-12.4C59.7,20.3,59,16.5,58.2,13.1z"
					/>
				<g id="object2" transform="translate(45.685998, 22.683999)">
					<path id="Path_2_" class="st2" d="M19.1-2.3L8.5-1.8C8-1.8,7.6-1.4,7.6-0.8S8.1,0.1,8.6,0h0l10.6-0.5c0.5,0,0.9-0.4,0.9-1
						C20-1.9,19.6-2.3,19.1-2.3L19.1-2.3z"/>
					<path id="Path_3_" class="st2" d="M21.9-5.2L11.6-4.7c-0.5,0-0.9,0.4-0.9,0.9s0.4,0.9,0.9,0.9h0L22-3.3c0.5,0,0.9-0.4,0.9-1
						C22.9-4.8,22.4-5.2,21.9-5.2L21.9-5.2z"/>
				</g>
				<g id="object-lines" transform="translate(0.000000, 9.328000)">
					<path class="st2" d="M-12.1,78.9c-0.3,0-0.5-0.2-0.5-0.5s0.2-0.5,0.5-0.5c19.6,0,23-39.5,24.3-54.3l0.1-1.7
						c0-0.2,0.2-0.4,0.5-0.4c0.3,0,0.4,0.2,0.4,0.5l-0.1,1.7C11.8,38.8,8.3,78.9-12.1,78.9z"/>
					<path class="st2" d="M54.4,26.6c-0.2,0-0.4-0.1-0.4-0.3c-1.9-6.5-2.6-13.7-2.1-20.7c0.2-2.3,0.9-5.9,2.1-8
						c0.1-0.2,0.4-0.3,0.6-0.2c0.2,0.1,0.3,0.4,0.2,0.6c-1,1.8-1.8,5-2,7.6c-0.5,6.9,0.2,14,2.1,20.4c0.1,0.2-0.1,0.5-0.3,0.6
						C54.5,26.6,54.5,26.6,54.4,26.6z"/>
					<path class="st2" d="M29.6,9.3c-0.2,0-0.4-0.1-0.4-0.3c-0.6-1.5-1-3.2-1.2-4.8c-0.1-1.1-0.2-2.1-0.3-3.2
						c-0.1-1.8-0.3-3.6-0.6-5.4c-0.5-3.1-1-5.1-3.8-6c-0.7-0.2-1.4-0.2-2.1-0.1c-0.2,0-0.5-0.1-0.5-0.4c0-0.2,0.1-0.5,0.4-0.5
						c0.8-0.2,1.7-0.1,2.5,0.1c3.2,1,3.8,3.4,4.4,6.7c0.3,1.8,0.5,3.7,0.6,5.5c0.1,1.1,0.2,2.1,0.3,3.2C29,5.7,29.4,7.3,30,8.7
						c0.1,0.2,0,0.5-0.3,0.6C29.7,9.3,29.6,9.3,29.6,9.3z"/>
				</g>
			</g>
		</g>
	</g>
</g>
</svg>
