<?xml version="1.0" encoding="utf-8"?>
<!-- Generator: Adobe Illustrator 21.0.2, SVG Export Plug-In . SVG Version: 6.00 Build 0)  -->
<svg version="1.1" id="Layer_1" xmlns="http://www.w3.org/2000/svg" xmlns:xlink="http://www.w3.org/1999/xlink" x="0px" y="0px"
	 viewBox="0 0 104 104" style="enable-background:new 0 0 104 104;" xml:space="preserve">
<style type="text/css">
	.st0{fill:#1E78F0;}
	.st1{fill:#F0B441;}
	.st2{fill:#DC8C2D;}
</style>
<g id="suitcases" transform="translate(20.000000, 17.000000)">
	<g id="body" transform="translate(6.050000, 0.000000)">
		<path id="Path" class="st0" d="M68.8,81.3C68.8,81.3,68.7,81.3,68.8,81.3C68.1,78.5,65.4,65,64.5,61c-0.9-4.4-1.4-8.8-2.6-12.7
			c-1.1-3.5-7.1-16.9-14-27.9l0,0c-2.5-4.7-5-9.4-6.4-14.3c0.9-0.5,1.8-1,2.7-1.4c1.6-0.7,4.1-1,6.5-1.2c0.5,0,1.2,0.1,1.3,0.4
			c0.3,0.7,0.6,1.3,0.8,2c1.7-0.3,3.5-0.2,5.1,0c2,0.1,4,0.4,5.9,0.8c-0.5-2.6-1.3-6.4-1.9-7.5c-0.7-1.4-1.6-2.3-2.9-3.1
			c-2.3-1.6-5.7-1.6-8.4-1.4c-4.4,0.3-9.6,1-14,2.8l0,0c-2.6,0.9-6.7,3.3-9.5,2.7c-1.4-0.3-3.3-1.5-4.6-2.3h0
			c-4.6-3-11.1-4.5-16.3-5.2c-2.7-0.4-6-0.5-8.5,0.9c-1.3,0.7-2.3,1.6-3.1,2.9C-6-2.1-7.7,4.3-8.1,6s-0.9,4.6-1.2,5.9
			s-0.7,3.6-0.8,5.5c0,0.6-0.1,1.3,0.5,1.7c0.5,0.3,1,0.1,1.4-0.3c0.5-0.6,0.6-1.5,0.7-2.2c0.1-0.5,0.2-1,0.3-1.5l0.4,0.2
			c-0.2,1.1-0.4,2.1-0.5,3.3c-0.1,1-0.6,3,0.6,3.4c1.3,0.4,1.6-1.6,1.9-2.3c0.4-1.2,0.8-2.6,1.2-3.8c0.1,0,0.3,0.2,0.4,0.2
			c-0.2,0.9-0.4,1.8-0.4,2.8c0,0.7-0.1,1.8,0.5,2.3c1.2,0.9,2.1-1.8,2.4-2.7c0.5-1.6,1-3.3,1.3-5c0.2,0.3,0.9,0.7,1.1,1
			c0.5,0.7,1.4,0.4,1.5-0.1c0.1-0.1,0.2-0.2,0.2-0.4c-0.4-2.8-1.2-5.6-0.6-8.3c0.4-1.2,0.9-2.3,1.5-3.4C4.4,2,4.6,1.9,4.7,1.8
			c0.3-0.1,0.7,0,1.1,0c2.4,0.3,4.8,0.5,6.4,1.3c1.8,0.9,3.7,2,4.6,3.8c0.1,0.2,0.2,0.3,0.3,0.4c0.5,4.5,0.3,9,0.1,13.5
			c-0.2,5.3,0.1,10.5-0.5,15.8c-0.7,5.7-1,11.5-1.6,13.7c-0.6,2.3-3.2,10.2-5.4,15.6c-2.1,5.3-5.6,13.2-6.5,18.9
			c-0.1,0.4,0,1.1,0.2,1.3c0.1,0.2,0.5,0.5,0.9,0.5l6.7,0.2c1.6,0.1,5.4,0.2,7.6,0c1.6-0.2,1.3-2-0.6-2.3h0c0-2.9,5.3-14.8,6.7-18.8
			c1.5-4.3,3.4-8.3,4.5-12.2c0.9-3.5,2.1-17.7,2-30.5c1-0.1,2.1-0.2,3.1-0.4c0.7,1.3,1.4,2.6,2.1,3.9c2.4,4.7,4,9,6.3,13.8
			c2.4,5.2,5.1,10.3,5.8,12.5C49,55.1,51,63.3,52,69c1,5.7,1.6,10.4,2.5,16.1c0.1,0.4,0.3,1,0.5,1.2c0.2,0.2,0.6,0.3,1,0.3l6.6-1.3
			c1.5-0.3,5.3-1,7.4-1.8C71.4,82.9,70.7,81.1,68.8,81.3z"/>
		<path id="Path_1_" class="st0" d="M24.7-8.9c-0.1,0.9,0.2,1.7,0.6,2.8s1.5,2,3.6,2c2.5,0,3.6-2.3,4-4.4L34-8.4
			c0.1,0,0.2,0,0.3-0.1c0.1-0.1,0.1-0.2,0.1-0.3c-0.2-1.9-0.8-3.7-1.7-5.4c-0.2-0.5-0.5-1-0.8-1.5c-1.7-2.1-4.4-1.2-5.7,0.8
			c-0.4,0.6-0.7,1.3-1,2c-0.5-0.1-1.1-0.2-1.6-0.1c-1.1,0.2-1.8,1.2-1.7,2.3C22.2-9.4,23.4-9,24.7-8.9z"/>
	</g>
	<g id="object" transform="translate(2.860000, 12.430000)">
		<path id="Path_2_" class="st1" d="M69.2-8.6c-1.1-0.9-2.5-1.3-3.9-1.5c-1.9-0.3-3.7-0.4-5.6-0.5c-2.1-0.1-4.2-0.2-6.3-0.2
			c-2.1,0.1-4.1,0.6-6,1.4c-1.1,0.5-2.1,1.1-3.1,1.8c1.4,5.2,4.1,10.4,6.8,15.4l0,0c2.3,3.7,4.4,7.6,6.4,11.3h0.4c1.9,0,3.8,0,5.6,0
			c1.6,0,3.3,0.1,4.8-0.5c2.8-1.1,2.5-4.8,2.5-7.3C71,7.6,71.1,3.8,71.2,0C71.3-2.9,71.8-6.6,69.2-8.6z"/>
		<path id="Path_3_" class="st1" d="M29.3,3.4c-0.1-2.8,0-5.8-0.5-8.7c-0.4-2.1-1.6-4-3.5-5c-1.5-0.8-3.2-1-4.8-0.6
			c-1.4-0.1-2.8-0.2-4.1-0.1c-2.7,0.1-5.5,0.1-8.2,0.2c-0.4,0.2-0.7,0.5-1,0.8C6.7-9,6.5-8.2,6.1-6.9C5.5-4.1,6.4-1.3,6.7,1.5
			c0,0.1-0.1,0.3-0.2,0.4C6.4,2.4,5.6,2.7,5,1.9C4.8,1.7,4.1,0.6,3.9,0.3C3.5,2,3.1,4.4,2.6,6C2.3,6.9,1.4,9.6,0.2,8.7
			c-0.6-0.5-0.5-1.6-0.5-2.3c0-0.9,0.1-1.9,0.4-2.8c-0.1,0-0.3-0.2-0.4-0.2C-0.8,4.7-1.2,6-1.6,7.2C-1.9,8-2.2,10-3.5,9.6
			c-1.3-0.4-0.7-2.5-0.6-3.4C-4,5-3.8,4-3.6,2.9L-4,2.6c-0.1,0.5-0.2,1-0.3,1.5c-0.2,0.7-0.2,1.6-0.7,2.2C-5.4,6.7-6,6.9-6.4,6.6
			C-7,6.3-7,5.5-6.9,5c0.1-1.8,0.5-4.2,0.8-5.5s0.8-4.2,1.2-5.9c0.2-0.7,0.6-2.4,1.1-4.2c-1,0.1-2,0.2-3,0.6c-1.8,0.6-3.2,2-3.9,3.7
			c-0.8,1.9-0.8,3.9-0.9,5.9c-0.1,2.7-0.2,5.4-0.1,8.1c0,2.6,0.2,5.3,0.6,7.9c0.3,1.7,0.8,3.7,2.6,4.4c1,0.4,2.2,0.3,3.3,0.3
			l4.3,0.1l8.3,0.1L24,20.8c1.9,0,4.2,0.1,5.2-1.9c1-1.9,0.6-4.3,0.5-6.3L29.3,3.4z"/>
	</g>
	<path id="object2" class="st2" d="M75.3,12.5c0.6-0.8,0.8-1.9-0.1-2.7c-0.9-0.7-2.4-0.7-3.6-0.4c0.4-0.5,0.7-1,0.2-1.7
		c-0.8-1.1-2.2-0.5-3.1,0.2c-0.1,0.1-0.2,0.2-0.2,0.3c-0.1,0-0.2,0.1-0.2,0.2c0,0.1-0.1,0.2,0,0.3c0.2,0.8,0.4,1.6,0.5,2.5
		c0.1,1,0,2,0,2.9c-0.1,0.9-0.2,1.7-0.2,2.6c0,0.6-0.1,1.6,0.3,2.1c0.6,0.9,2.1,0.8,2.8,0.1c0.6-0.6,0.7-1.4,0.4-2.1
		c0.8,0,1.7-0.1,2.5-0.2c0.8-0.1,1.9-0.4,2.4-1.2C77.6,14.3,76.5,13,75.3,12.5z M30.4,18.4c0-1.1-0.8-1.7-1.6-2
		c0.1-0.1,0.2-0.1,0.3-0.2c0.4-0.3,1-0.7,0.9-1.3c-0.1-0.8-0.7-1.1-1.4-1.1c0.3-0.4,0.5-0.7,0.3-1.1c-0.4-0.8-1.7-0.2-2.3-0.1
		c-0.2,0-0.3,0.2-0.3,0.3c-0.1,0.2,0,0.3,0.1,0.5c0.1,1,0.1,1.9,0.2,2.9c-0.2,0.2-0.1,0.5,0,0.7c0,1.3,0,2.7-0.1,4
		c0,0.3,0.2,0.5,0.5,0.5C28.7,21.4,30.5,20.4,30.4,18.4z M-8.9,17.9c-1,0.9-2.6,1.3-3.3-0.2c-0.7-1.3-0.2-3,0.4-4.4
		c-0.8-0.3-1.3-1.1-1.3-1.9c0-1.1,0.8-1.9,1.6-2.6c-0.9-0.9-1-2.7,0-3.6c0.7-0.6,2-0.4,2.8-0.3C-8.2,5-7.8,5.2-7.4,5.3
		c-0.1,0.3-0.3,0.5-0.4,0.8c-0.8,1.9-0.8,3.9-0.9,5.9C-8.8,14-8.9,16-8.9,17.9z"/>
</g>
</svg>
