<?xml version="1.0" encoding="UTF-8"?>
<svg width="38px" height="38px" viewBox="0 0 38 38" version="1.1" xmlns="http://www.w3.org/2000/svg" xmlns:xlink="http://www.w3.org/1999/xlink">
    <title>5201F3AC-A66B-4566-A1F3-F4584BC147A0</title>
    <g id="News-App-Designs" stroke="none" stroke-width="1" fill="none" fill-rule="evenodd">
        <g id="signal-app-icons-and-image-sheet" transform="translate(-376.000000, -649.000000)">
            <g id="india" transform="translate(376.000000, 649.000000)">
                <path d="M36.9188649,25.3333333 L1.08113525,25.3333333 C3.68943316,32.7128852 10.7272803,38 19,38 C27.2727198,38 34.3105668,32.7128852 36.9188641,25.3333333 L36.9188649,25.3333333 L36.9188649,25.3333333 Z" id="green" fill="#1AAF5D"></path>
                <path d="M1.08113525,25.3333333 L36.9188649,25.3333333 C37.6190233,23.3524003 38,21.2206911 38,19 C38,16.7793089 37.6190233,14.6475998 36.9188641,12.6666666 L1.08113525,12.6666667 C0.380976698,14.6475998 0,16.7793089 0,19 C0,21.2206911 0.380976698,23.3524003 1.08113606,25.3333333 L1.08113525,25.3333333 L1.08113525,25.3333333 Z" id="white" fill="#FFFFFF"></path>
                <path d="M1.08113525,12.6666667 L36.9188649,12.6666667 C34.3105668,5.28711469 27.2727198,0 19,0 C10.7272803,0 3.68943316,5.28711469 1.08113606,12.6666666 L1.08113525,12.6666667 L1.08113525,12.6666667 Z" id="orange" fill="#E87E04"></path>
                <path d="M19.9612562,23.8583201 C20.2406469,23.8113252 20.5117528,23.7398808 20.7723035,23.6462598 L20.7723035,23.6462598 C20.7518717,23.6266837 20.7349909,23.6027291 20.7232339,23.5750322 C20.6768202,23.4656918 20.7278351,23.3394296 20.8371788,23.2930173 C20.9465225,23.2466051 21.0727887,23.2976184 21.1192024,23.4069588 C21.1318378,23.4367248 21.1372525,23.4677451 21.1362356,23.4980668 C21.399161,23.3779908 21.6492196,23.2345819 21.8837706,23.0704844 C21.8512991,23.0567022 21.8217692,23.0347237 21.7985129,23.0049579 C21.7253807,22.9113556 21.7419771,22.7761924 21.8355822,22.7030622 C21.9291875,22.6299321 22.0643549,22.6465281 22.1374873,22.7401304 C22.1620207,22.7715306 22.1764563,22.807608 22.1812742,22.8444518 L22.1812742,22.8444518 C22.4100254,22.6560653 22.6208548,22.4466593 22.8108154,22.2191844 L22.8108154,22.2191844 C22.7684158,22.2175989 22.7260566,22.2034836 22.6896023,22.1760142 C22.5947351,22.1045289 22.5757822,21.9696757 22.6472698,21.8748115 C22.7187574,21.779947 22.8536145,21.7609947 22.9484818,21.8324801 C22.9865767,21.8611857 23.0124304,21.9001095 23.0251023,21.9425591 C23.2028825,21.6947867 23.3574246,21.4291764 23.485535,21.1489251 C23.4384171,21.1649556 23.3855425,21.1647988 23.3357754,21.1446921 C23.2256385,21.1001953 23.1724276,20.9748425 23.2169259,20.8647088 C23.2614242,20.7545751 23.3867807,20.701366 23.4969178,20.7458629 C23.5482072,20.7665845 23.5871512,20.8048407 23.6096314,20.850929 L23.6096314,20.850929 C23.7197647,20.5586909 23.8019395,20.2527213 23.8528904,19.9362895 L23.8528904,19.9362895 C23.8093476,19.9708319 23.7525217,19.9885834 23.6929969,19.9812749 C23.5750955,19.9667989 23.4912533,19.8594889 23.5057297,19.7415913 C23.5202062,19.6236937 23.6275194,19.5398539 23.7454208,19.5543299 C23.8058504,19.5617495 23.8573327,19.5935568 23.8912154,19.6386777 C23.9060076,19.4859711 23.913577,19.3311479 23.913577,19.1745547 C23.913577,19.0040027 23.9045979,18.8355502 23.8870876,18.6696454 C23.8543213,18.7197859 23.8008978,18.7560564 23.7369224,18.7650473 C23.6192917,18.7815787 23.5105315,18.6996245 23.4939995,18.5819975 C23.4774678,18.4643705 23.5594245,18.3556136 23.677055,18.3390822 C23.7417813,18.3299858 23.803822,18.3507084 23.8492891,18.3907853 L23.8492891,18.3907853 C23.7946245,18.0611843 23.7060604,17.7430521 23.5873049,17.4401006 L23.5873049,17.4401006 C23.5700291,17.5003177 23.5267192,17.5525083 23.4645586,17.5788931 C23.3552151,17.6253054 23.2289488,17.574292 23.182535,17.4649517 C23.1361215,17.3556114 23.1871363,17.229349 23.29648,17.1829368 C23.3585226,17.1566021 23.4260136,17.1616338 23.481274,17.1908896 C23.3425372,16.8891203 23.1731245,16.6044071 22.9770357,16.340755 C22.9751135,16.4023756 22.9468476,16.4627239 22.8944668,16.503647 C22.8008617,16.5767771 22.6656943,16.5601811 22.5925619,16.4665788 C22.5194295,16.3729765 22.536026,16.2378133 22.6296311,16.1646831 C22.6813702,16.1242614 22.7458075,16.1112526 22.805448,16.1235089 L22.805448,16.1235089 C22.5959269,15.8735025 22.3611563,15.645421 22.105066,15.4431988 L22.105066,15.4431988 C22.1159046,15.5006238 22.1034391,15.5622366 22.0654977,15.612585 C21.9940101,15.7074494 21.8591529,15.7264017 21.7642857,15.6549163 C21.6694183,15.5834309 21.6504654,15.4485779 21.721953,15.3537135 C21.7591484,15.3043552 21.8134989,15.2755475 21.870446,15.2693365 C21.6095937,15.0881617 21.3297183,14.93251 21.0344245,14.8059909 C21.0543157,14.8557025 21.0557862,14.9128671 21.0341441,14.9664317 C20.9896458,15.0765654 20.8642891,15.1297745 20.7541521,15.0852776 C20.644015,15.0407807 20.5908042,14.9154279 20.6353025,14.8052942 C20.656218,14.7535281 20.6949974,14.7143382 20.7416637,14.6919594 L20.7416637,14.6919594 C20.4533552,14.5906092 20.1523119,14.5163499 19.841581,14.472232 L19.841581,14.472232 C19.8654823,14.5119471 19.876778,14.5596483 19.8706911,14.6092213 C19.8562146,14.7271189 19.7489013,14.8109587 19.6310001,14.7964827 C19.5130989,14.7820067 19.4292565,14.6746967 19.443733,14.5567991 C19.4494938,14.5098821 19.4699564,14.4683587 19.4999375,14.4362782 C19.3907585,14.4287573 19.2805637,14.4249348 19.1694772,14.4249348 C18.9791788,14.4249348 18.7914974,14.4361523 18.6070567,14.4579629 C18.6316977,14.4876342 18.648664,14.5242988 18.6544261,14.5652971 C18.670958,14.6829241 18.5890013,14.791681 18.4713707,14.8082124 C18.35374,14.8247438 18.2449798,14.7427896 18.2284479,14.6251626 C18.2230537,14.586782 18.2281452,14.5493458 18.2415401,14.5157496 L18.2415401,14.5157496 C17.9553519,14.5725651 17.678428,14.6551526 17.4132824,14.7609951 L17.4132824,14.7609951 C17.4363628,14.7815091 17.4553679,14.8073393 17.4682355,14.8376525 C17.5146492,14.9469928 17.4636343,15.0732552 17.3542906,15.1196674 C17.2449469,15.1660796 17.1186807,15.1150663 17.072267,15.005726 C17.0605958,14.978231 17.0550852,14.949666 17.0551137,14.9215697 C16.8038461,15.0470203 16.5652586,15.194133 16.3417915,15.3604648 C16.3608148,15.3729946 16.378156,15.3887837 16.3929564,15.4077268 C16.4660887,15.5013291 16.4494923,15.6364924 16.3558871,15.7096225 C16.2622819,15.7827526 16.1271145,15.7661567 16.0539821,15.6725544 C16.0410141,15.6559565 16.0308674,15.6380519 16.0234712,15.619418 L16.0234712,15.619418 C15.8194722,15.8004948 15.6311698,15.9989015 15.4608656,16.2123336 L15.4608656,16.2123336 C15.4751067,16.2187714 15.4888626,16.2268713 15.5018671,16.2366705 C15.5967343,16.3081559 15.6156873,16.443009 15.5441997,16.5378733 C15.4727121,16.6327376 15.3378549,16.65169 15.2429876,16.5802046 C15.2319466,16.5718849 15.2219339,16.5627068 15.2129723,16.5528333 C15.0653763,16.7756452 14.9360561,17.0116458 14.8271524,17.2586919 C14.8367375,17.2610939 14.8462714,17.2641857 14.8556939,17.2679925 C14.965831,17.3124894 15.0190418,17.4378422 14.9745435,17.5479759 C14.9300452,17.6581096 14.8046886,17.7113187 14.6945515,17.6668218 C14.6870382,17.6637863 14.6797897,17.6603745 14.6728192,17.656617 L14.6728192,17.656617 C14.5889192,17.9058299 14.5251092,18.1642951 14.4833173,18.430082 L14.4833173,18.430082 C14.4883451,18.4303459 14.493399,18.4307868 14.4984726,18.4314098 C14.6163738,18.4458858 14.7002161,18.5531958 14.6857397,18.6710934 C14.6712632,18.788991 14.5639499,18.8728308 14.4460487,18.8583548 C14.4426105,18.8579326 14.4392012,18.8574315 14.4358225,18.8568535 C14.4288957,18.961858 14.4253775,19.067795 14.4253775,19.1745547 C14.4253775,19.3345197 14.4332763,19.4926376 14.4487047,19.6485389 C14.4506421,19.6482131 14.4525896,19.6479125 14.454547,19.6476374 C14.5721776,19.631106 14.6809378,19.7130602 14.6974697,19.8306872 C14.7140016,19.9483142 14.632045,20.0570711 14.5144143,20.0736025 C14.5130594,20.0737929 14.5117057,20.0739703 14.5103532,20.0741347 L14.5103532,20.0741347 C14.5605234,20.3361407 14.632196,20.5904967 14.7234612,20.8352908 L14.7234612,20.8352908 C14.7246045,20.8347822 14.7257544,20.8342824 14.7269107,20.8337916 C14.8362544,20.7873794 14.9625207,20.8383927 15.0089343,20.947733 C15.0553479,21.0570733 15.0043331,21.1833356 14.8949894,21.229748 C14.8939634,21.2301835 14.892936,21.2306103 14.8919071,21.2310288 C15.0067411,21.4700101 15.1409673,21.6978877 15.2925426,21.9126166 C15.2940093,21.9114078 15.2954959,21.9102148 15.2970026,21.9090376 C15.3906077,21.8359077 15.5257752,21.8525036 15.5989075,21.9461058 C15.6720399,22.0397082 15.6554434,22.1748715 15.5618383,22.2480017 C15.5599381,22.2494862 15.5580207,22.2509338 15.5560871,22.2523444 L15.5560871,22.2523444 C15.7275584,22.4539281 15.9155616,22.6409835 16.1179972,22.8114089 L16.1179972,22.8114089 C16.1205176,22.8075821 16.1231755,22.8038103 16.1259717,22.8000996 C16.1974593,22.7052354 16.3323165,22.6862829 16.4271838,22.7577683 C16.522051,22.8292537 16.5410039,22.9641068 16.4695164,23.0589713 C16.4659328,23.0637268 16.46219,23.0682914 16.458301,23.0726633 C16.675766,23.2245485 16.9065359,23.3586597 17.1485098,23.4728939 C17.1508384,23.4639491 17.15377,23.4550524 17.1573253,23.4462529 C17.2018236,23.3361192 17.3271803,23.2829101 17.4373174,23.3274071 C17.5474544,23.371904 17.6006652,23.4972567 17.5561669,23.6073904 C17.5519525,23.617821 17.5470128,23.6277411 17.5414295,23.6371159 L17.5414295,23.6371159 C17.7917449,23.7286742 18.051922,23.7997241 18.3199316,23.8482344 L18.3199316,23.8482344 C18.3186267,23.8329977 18.3189369,23.8173871 18.3210152,23.8016015 C18.33652,23.6838346 18.4445608,23.6009347 18.5623312,23.6164389 C18.6801017,23.6319431 18.7630043,23.7399807 18.7474996,23.8577475 C18.7453473,23.8740955 18.7414118,23.8897714 18.7359147,23.9046057 C18.8787034,23.9175572 19.0233184,23.9241745 19.1694772,23.9241745 C19.1694772,23.9241745 16.5493831,23.9241745 19.1694772,23.9241745 C19.2993372,23.9241745 19.4279786,23.9189507 19.5552031,23.9087017 C19.5463367,23.8897551 19.5401067,23.8691838 19.5370433,23.8473877 C19.5205114,23.7297606 19.6024681,23.6210037 19.7200987,23.6044722 C19.8377294,23.587941 19.9464896,23.6698952 19.9630215,23.787522 C19.9664252,23.8117399 19.965654,23.8355817 19.9612562,23.8583201 L19.9612562,23.8583201 Z M19.3238847,20.0477745 C19.3965215,20.027848 19.4653183,19.9986392 19.5289199,19.9615029 L19.5289199,19.9615029 L20.0076532,21.0807438 L21.4258722,23.2421353 L20.2631046,20.9332634 L19.5331276,19.95903 C19.5973812,19.9210223 19.6562633,19.8748957 19.7083615,19.8220624 L20.461726,20.7808605 L22.3910469,22.5015535 L20.6703012,20.5722917 L19.7114404,19.8189242 L19.7114404,19.8189242 C19.7632339,19.7658636 19.8082251,19.7061337 19.8450046,19.6411438 L19.8450046,19.6411438 L20.8227088,20.3736764 L23.1316515,21.5364084 L20.9701937,20.1182328 L19.8468916,19.637792 C19.882834,19.5736124 19.9107889,19.5043551 19.9294102,19.4313659 L21.0660011,19.8869404 L23.5972149,20.4124733 L21.1423449,19.6020301 L19.9301902,19.4282849 L19.9301902,19.4282849 C19.9470892,19.3610022 19.9560637,19.2905736 19.9560637,19.218049 C19.9560637,19.2145426 19.9560427,19.2110411 19.9560008,19.2075446 L19.9560009,19.2075446 L21.1750231,19.3538228 L23.75601,19.2063423 L21.1750231,19.0588619 L19.9559688,19.2051439 C19.9548498,19.1290475 19.9438505,19.055344 19.9241965,18.9852589 L21.1423449,18.8106546 L23.5972149,18.0002114 L21.0660011,18.5257443 L19.9237284,18.9835962 C19.9032823,18.9112497 19.8736091,18.8427756 19.8360603,18.7795253 L19.8360603,18.7795253 L20.9701937,18.2944519 L23.1316515,16.8762762 L20.8227088,18.0390083 L19.8355327,18.7786377 C19.7974143,18.7146032 19.7512179,18.6559376 19.6983489,18.6040464 L20.6703012,17.840393 L22.3910469,15.9111313 L20.461726,17.6318242 L19.6980467,18.6037498 L19.6980467,18.6037498 C19.6451869,18.5519184 19.585666,18.506855 19.5208868,18.4699627 L19.5208582,18.4700295 L20.2631046,17.4794213 L21.4258722,15.1705495 L20.0076532,17.3319409 L19.5208868,18.4699627 C19.3954831,18.3985441 19.2503734,18.3577465 19.0957347,18.3577465 C18.9410898,18.3577465 18.7959747,18.3985473 18.6705676,18.4699712 L17.9283648,17.4794213 L16.7655971,15.1705495 L18.1838163,17.3319409 L18.6706112,18.4700295 L18.6705676,18.4699712 C18.6057942,18.506862 18.5462784,18.5519224 18.4934227,18.6037498 L18.4934227,18.6037498 L17.7297434,17.6318242 L15.8004225,15.9111313 L17.5211682,17.840393 L18.4931205,18.6040464 C18.4402515,18.6559376 18.3940551,18.7146032 18.3559367,18.7786377 L17.3687607,18.0390083 L15.059818,16.8762762 L17.2212757,18.2944519 L18.3554091,18.7795253 L18.3554091,18.7795253 C18.3178603,18.8427756 18.2881872,18.9112497 18.267741,18.9835962 L18.267741,18.9835962 L17.1254683,18.5257443 L14.5942545,18.0002114 L17.0491245,18.8106546 L18.2672729,18.9852589 C18.2476189,19.055344 18.2366196,19.1290475 18.2355006,19.2051439 L17.0164464,19.0588619 L14.4354595,19.2063423 L17.0164464,19.3538228 L18.2354686,19.2075446 L18.2354686,19.2075446 C18.2354267,19.2110411 18.2354057,19.2145426 18.2354057,19.218049 C18.2354057,19.2905736 18.2443802,19.3610022 18.2612792,19.4282849 L18.2612792,19.4282849 L17.0491245,19.6020301 L14.5942545,20.4124733 L17.1254683,19.8869404 L18.2620592,19.4313659 C18.2806805,19.5043551 18.3086354,19.5736124 18.3445778,19.637792 L17.2212757,20.1182328 L15.059818,21.5364084 L17.3687607,20.3736764 L18.3464647,19.6411438 L18.3464647,19.6411438 C18.3832442,19.7061337 18.4282355,19.7658636 18.480029,19.8189242 L18.480029,19.8189242 L17.5211682,20.5722917 L15.8004225,22.5015535 L17.7297434,20.7808605 L18.4831079,19.8220624 C18.5352061,19.8748957 18.5940882,19.9210223 18.6583418,19.95903 L17.9283648,20.9332634 L16.7655971,23.2421353 L18.1838163,21.0807438 L18.6625495,19.9615029 L18.6625495,19.9615029 C18.7261511,19.9986392 18.7949479,20.027848 18.8675847,20.0477744 L18.8675847,20.0477744 L18.4151157,21.1765484 L17.8895667,23.7076845 L18.7000348,21.2528897 L18.8725872,20.0491305 C18.942949,20.0679743 19.0168676,20.0781209 19.0931205,20.0783477 L19.09312,20.0783516 C19.0559361,20.0783516 18.6413989,20.0783516 19.0957347,20.0783516 C19.0966064,20.0783516 19.0974778,20.0783503 19.0983489,20.0783477 L19.2432197,21.2855668 L19.0957347,23.8664746 L18.9482497,21.2855668 L19.09312,20.0783516 L19.0983489,20.0783477 C19.1746018,20.0781209 19.2485204,20.0679743 19.3188821,20.0491305 L19.4914346,21.2528897 L20.3019027,23.7076845 L19.7763536,21.1765484 L19.3238847,20.0477745 L19.3238847,20.0477745 Z M19.1694772,24.4044444 C22.0610835,24.4044444 24.4051934,22.0604064 24.4051934,19.1688889 C24.4051934,16.2773713 22.0610835,13.9333333 19.1694772,13.9333333 C16.2778708,13.9333333 13.9337609,16.2773713 13.9337609,19.1688889 C13.9337609,22.0604064 16.2778708,24.4044444 19.1694772,24.4044444 C19.1694772,24.4044444 16.2778708,24.4044444 19.1694772,24.4044444 L19.1694772,24.4044444 Z M17.8895667,14.7050003 L18.4151157,17.2361364 L18.8756746,18.385092 L18.7000348,17.1597949 L17.8895667,14.7050003 L17.8895667,14.7050003 Z M19.0957347,14.5462101 L18.9482497,17.1271178 L19.0957347,18.3561215 L19.2432197,17.1271178 L19.0957347,14.5462101 L19.0957347,14.5462101 Z M20.3019027,14.7050003 L19.4914346,17.1597949 L19.3157948,18.385092 L19.7763536,17.2361364 L20.3019027,14.7050003 L20.3019027,14.7050003 Z" id="emblem" fill="#227FBB"></path>
            </g>
        </g>
    </g>
</svg>