<?xml version="1.0" encoding="UTF-8"?>
<svg width="38px" height="38px" viewBox="0 0 38 38" version="1.1" xmlns="http://www.w3.org/2000/svg" xmlns:xlink="http://www.w3.org/1999/xlink">
    <title>8EDE4E42-B883-4488-B5E4-F62055805E58</title>
    <g id="News-App-Designs" stroke="none" stroke-width="1" fill="none" fill-rule="evenodd">
        <g id="signal-app-icons-and-image-sheet" transform="translate(-440.000000, -649.000000)">
            <g id="united_states" transform="translate(440.000000, 649.000000)">
                <circle id="white" fill="#FFFFFF" cx="19" cy="19" r="19"></circle>
                <path d="M19,8.86666622 L35.0751128,8.86666667 L35.0751121,8.86666576 C34.405067,7.80596167 33.6329374,6.81617609 32.7725251,5.91111084 L32.7725266,5.91111111 L19,5.91111098 L19,8.86666622 L19,8.86666622 L19,8.86666622 L19,8.86666622 L19,8.86666622 Z M19,0 C22.7459684,0 26.2387429,1.08405261 29.1817206,2.95555556 L29.1817206,2.95555556 L19,2.95555556 L19,0 L19,0 L19,0 L19,0 L19,0 Z M19,14.7777778 L37.5291876,14.7777778 C37.2980321,13.7590769 36.985023,12.771465 36.5974405,11.8222222 L36.5974405,11.8222222 L19,11.8222222 L19,14.7777778 L19,14.7777778 L19,14.7777778 L19,14.7777778 L19,14.7777778 Z M0,19 C0,19.5691548 0.0250255059,20.1324645 0.0740361828,20.6888889 L37.9259638,20.6888889 C37.9749745,20.1324645 38,19.5691548 38,19 C38,18.5743638 37.9860042,18.1519966 37.9584476,17.7333333 L37.9584476,17.7333333 L19,17.7333333 L19,19 L0,19 L0,19 L0,19 L0,19 L0,19 Z M37.4282604,23.6444444 C37.1718858,24.6649049 36.8329738,25.6525933 36.4190341,26.6 L36.4190341,26.6 L1.58096583,26.6 C1.16702631,25.6525933 0.828114145,24.6649049 0.571739581,23.6444444 L37.4282604,23.6444444 L37.4282604,23.6444444 L37.4282604,23.6444444 L37.4282604,23.6444444 L37.4282604,23.6444444 Z M34.8005079,29.5555556 C34.086669,30.6219755 33.2677325,31.6120999 32.3585164,32.5111111 L32.3585164,32.5111111 L5.64148363,32.5111111 C4.73226747,31.6120999 3.91333099,30.6219755 3.19949212,29.5555556 L34.8005079,29.5555556 L34.8005079,29.5555556 L34.8005079,29.5555556 L34.8005079,29.5555556 L34.8005079,29.5555556 Z M28.4852414,35.4666671 C25.6939324,37.0780081 22.4546376,38 19,38 C15.5453624,38 12.3060676,37.0780081 9.51475855,35.4666671 L28.4852421,35.4666667 L28.4852414,35.4666671 L28.4852414,35.4666671 L28.4852414,35.4666671 L28.4852414,35.4666671 L28.4852414,35.4666671 Z" id="red" fill="#E94B35"></path>
                <path d="M19,0 C8.50658924,0 5.66652673e-15,8.50658924 0,19 L19,19 L19,0 L19,0 L19,0 L19,0 L19,0 Z" id="blue" fill="#227FBB"></path>
                <g id="stars" transform="translate(1.477778, 1.900000)" fill="#FFFFFF">
                    <polygon id="star" points="5.78747361 5.37544122 5.21151665 5.69999998 5.32151462 5.01257354 4.85555556 4.52573542 5.49949522 4.42544116 5.78747366 3.8 6.07545227 4.42544132 6.71939188 4.52573593 6.25343263 5.01257367 6.36343062 5.7"></polygon>
                    <polygon id="star" points="5.78747361 8.753219 5.21151665 9.07777776 5.32151462 8.39035132 4.85555556 7.9035132 5.49949522 7.80321893 5.78747366 7.17777778 6.07545227 7.8032191 6.71939188 7.90351371 6.25343263 8.39035144 6.36343062 9.07777778"></polygon>
                    <polygon id="star" points="3.46525139 7.48655233 2.88929443 7.81111109 2.99929239 7.12368465 2.53333333 6.63684653 3.17727299 6.53655227 3.46525143 5.91111111 3.75323004 6.53655244 4.39716966 6.63684704 3.93121041 7.12368478 4.0412084 7.81111111"></polygon>
                    <polygon id="star" points="3.25414028 10.653219 2.67818332 10.9777778 2.78818128 10.2903513 2.32222222 9.8035132 2.96616188 9.70321893 3.25414032 9.07777778 3.54211893 9.7032191 4.18605855 9.80351371 3.7200993 10.2903514 3.83009729 10.9777778"></polygon>
                    <polygon id="star" points="5.36525139 12.7643301 4.78929443 13.0888889 4.89929239 12.4014624 4.43333333 11.9146243 5.07727299 11.81433 5.36525143 11.1888889 5.65323004 11.8143302 6.29716966 11.9146248 5.83121041 12.4014626 5.9412084 13.0888889"></polygon>
                    <polygon id="star" points="3.25414028 14.0309968 2.67818332 14.3555555 2.78818128 13.6681291 2.32222222 13.181291 2.96616188 13.0809967 3.25414032 12.4555556 3.54211893 13.0809969 4.18605855 13.1812915 3.7200993 13.6681292 3.83009729 14.3555556"></polygon>
                    <polygon id="star" points="0.931918065 12.3421079 0.355961084 12.6666666 0.465959053 11.9792402 0 11.4924021 0.643939655 11.3921078 0.931918097 10.7666667 1.21989672 11.392108 1.86383632 11.4924026 1.39787708 11.9792403 1.50787507 12.6666667"></polygon>
                    <polygon id="star" points="0.931918065 15.7198857 0.355961084 16.0444444 0.465959053 15.357018 0 14.8701799 0.643939655 14.7698856 0.931918097 14.1444444 1.21989672 14.7698858 1.86383632 14.8701804 1.39787708 15.3570181 1.50787507 16.0444444"></polygon>
                    <polygon id="star" points="5.78747361 15.7198857 5.21151665 16.0444444 5.32151462 15.357018 4.85555556 14.8701799 5.49949522 14.7698856 5.78747366 14.1444444 6.07545227 14.7698858 6.71939188 14.8701804 6.25343263 15.3570181 6.36343062 16.0444444"></polygon>
                    <polygon id="star" points="15.4985847 1.57544121 14.9226278 1.89999999 15.0326257 1.21257353 14.5666667 0.725735425 15.2106063 0.625441164 15.4985848 0 15.7865634 0.625441318 16.430503 0.725735926 15.9645437 1.21257366 16.0745417 1.9"></polygon>
                    <polygon id="star" points="15.4985847 4.953219 14.9226278 5.27777776 15.0326257 4.59035132 14.5666667 4.1035132 15.2106063 4.00321893 15.4985848 3.37777778 15.7865634 4.0032191 16.430503 4.10351371 15.9645437 4.59035144 16.0745417 5.27777778"></polygon>
                    <polygon id="star" points="15.4985847 8.33099677 14.9226278 8.65555553 15.0326257 7.9681291 14.5666667 7.48129098 15.2106063 7.38099671 15.4985848 6.75555556 15.7865634 7.38099688 16.430503 7.48129148 15.9645437 7.96812922 16.0745417 8.65555556"></polygon>
                    <polygon id="star" points="15.4985847 11.7087746 14.9226278 12.0333333 15.0326257 11.3459069 14.5666667 10.8590688 15.2106063 10.7587745 15.4985848 10.1333333 15.7865634 10.7587747 16.430503 10.8590693 15.9645437 11.345907 16.0745417 12.0333333"></polygon>
                    <polygon id="star" points="12.9652514 3.47544122 12.3892944 3.79999998 12.4992924 3.11257354 12.0333333 2.62573542 12.677273 2.52544116 12.9652514 1.9 13.25323 2.52544132 13.8971697 2.62573593 13.4312104 3.11257367 13.5412084 3.8"></polygon>
                    <polygon id="star" points="12.9652514 6.853219 12.3892944 7.17777776 12.4992924 6.49035132 12.0333333 6.0035132 12.677273 5.90321893 12.9652514 5.27777778 13.25323 5.9032191 13.8971697 6.00351371 13.4312104 6.49035144 13.5412084 7.17777778"></polygon>
                    <polygon id="star" points="12.9652514 10.2309968 12.3892944 10.5555555 12.4992924 9.8681291 12.0333333 9.38129098 12.677273 9.28099671 12.9652514 8.65555556 13.25323 9.28099688 13.8971697 9.38129148 13.4312104 9.86812922 13.5412084 10.5555556"></polygon>
                    <polygon id="star" points="12.9652514 13.6087746 12.3892944 13.9333333 12.4992924 13.2459069 12.0333333 12.7590688 12.677273 12.6587745 12.9652514 12.0333333 13.25323 12.6587747 13.8971697 12.7590693 13.4312104 13.245907 13.5412084 13.9333333"></polygon>
                    <polygon id="star" points="15.4985847 15.2976634 14.9226278 15.6222222 15.0326257 14.9347958 14.5666667 14.4479576 15.2106063 14.3476634 15.4985848 13.7222222 15.7865634 14.3476635 16.430503 14.4479581 15.9645437 14.9347959 16.0745417 15.6222222"></polygon>
                    <polygon id="star" points="10.8541403 1.99766343 10.2781833 2.3222222 10.3881813 1.63479575 9.92222222 1.14795765 10.5661619 1.04766339 10.8541403 0.422222222 11.1421189 1.04766354 11.7860586 1.14795815 11.3200993 1.63479588 11.4300973 2.32222222"></polygon>
                    <polygon id="star" points="10.8541403 5.37544122 10.2781833 5.69999998 10.3881813 5.01257354 9.92222222 4.52573542 10.5661619 4.42544116 10.8541403 3.8 11.1421189 4.42544132 11.7860586 4.52573593 11.3200993 5.01257367 11.4300973 5.7"></polygon>
                    <polygon id="star" points="10.8541403 8.753219 10.2781833 9.07777776 10.3881813 8.39035132 9.92222222 7.9035132 10.5661619 7.80321893 10.8541403 7.17777778 11.1421189 7.8032191 11.7860586 7.90351371 11.3200993 8.39035144 11.4300973 9.07777778"></polygon>
                    <polygon id="star" points="10.8541403 12.1309968 10.2781833 12.4555555 10.3881813 11.7681291 9.92222222 11.281291 10.5661619 11.1809967 10.8541403 10.5555556 11.1421189 11.1809969 11.7860586 11.2812915 11.3200993 11.7681292 11.4300973 12.4555556"></polygon>
                    <polygon id="star" points="8.32080695 3.89766344 7.74484998 4.2222222 7.85484795 3.53479576 7.38888889 3.04795764 8.03282855 2.94766338 8.32080699 2.32222222 8.6087856 2.94766355 9.25272522 3.04795815 8.78676597 3.53479589 8.89676395 4.22222222"></polygon>
                    <polygon id="star" points="8.32080695 7.27544122 7.74484998 7.59999998 7.85484795 6.91257354 7.38888889 6.42573542 8.03282855 6.32544116 8.32080699 5.7 8.6087856 6.32544132 9.25272522 6.42573593 8.78676597 6.91257367 8.89676395 7.6"></polygon>
                    <polygon id="star" points="8.32080695 10.653219 7.74484998 10.9777778 7.85484795 10.2903513 7.38888889 9.8035132 8.03282855 9.70321893 8.32080699 9.07777778 8.6087856 9.7032191 9.25272522 9.80351371 8.78676597 10.2903514 8.89676395 10.9777778"></polygon>
                    <polygon id="star" points="8.32080695 14.0309968 7.74484998 14.3555555 7.85484795 13.6681291 7.38888889 13.181291 8.03282855 13.0809967 8.32080699 12.4555556 8.6087856 13.0809969 9.25272522 13.1812915 8.78676597 13.6681292 8.89676395 14.3555556"></polygon>
                    <polygon id="star" points="10.8541403 15.7198857 10.2781833 16.0444444 10.3881813 15.357018 9.92222222 14.8701799 10.5661619 14.7698856 10.8541403 14.1444444 11.1421189 14.7698858 11.7860586 14.8701804 11.3200993 15.3570181 11.4300973 16.0444444"></polygon>
                </g>
            </g>
        </g>
    </g>
</svg>